<?xml version="1.0" encoding="UTF-8"?>
<svg width="153px" height="158px" viewBox="0 0 153 158" version="1.1" xmlns="http://www.w3.org/2000/svg" xmlns:xlink="http://www.w3.org/1999/xlink">
    <!-- Generator: Sketch 42 (36781) - http://www.bohemiancoding.com/sketch -->
    <title>Diplomeringen_logotyp_orange</title>
    <desc>Created with Sketch.</desc>
    <defs>
        <polygon id="path-1" points="24.371491 0.772 0.971 0.772 0.971 20.986 24.371491 20.986 24.371491 0.772"></polygon>
        <polygon id="path-3" points="0.06 78.614 0.06 0.039 42.696 0.039 42.696 78.614 0.06 78.614"></polygon>
    </defs>
    <g id="Page-1" stroke="none" stroke-width="1" fill="none" fill-rule="evenodd">
        <g id="Diplomeringen_logotyp_orange">
            <path d="M94.6,21.821 L94.654,22.12 C95.532,22.372 96.376,22.638 97.249,22.972 C98.027,23.269 98.907,23.661 99.657,24.031 L100.35,23.516 L100.295,23.217 C99.152,22.641 99.148,22.278 99.759,20.647 L105.292,5.894 L101.454,5.318 L100.76,5.833 L100.814,6.132 C101.884,6.54 101.945,6.675 101.25,8.525 L97.089,19.627 C96.459,21.306 96.26,21.537 95.293,21.306 L94.6,21.821" id="Fill-1" fill="#f6892a"></path>
            <path d="M113.901,27.709 C112.676,29.019 112.404,29.157 111.594,28.576 L110.757,28.788 L110.693,29.084 C111.41,29.65 112.09,30.217 112.771,30.858 C113.378,31.427 114.044,32.123 114.598,32.75 L115.437,32.538 L115.5,32.241 C114.66,31.275 114.795,30.939 115.986,29.666 L118.418,27.064 C119.75,25.64 121.428,24.72 122.51,25.734 C123.496,26.659 122.707,27.808 121.729,28.853 L118.64,32.157 C117.415,33.468 117.144,33.605 116.334,33.024 L115.496,33.236 L115.432,33.532 C116.148,34.098 116.829,34.665 117.511,35.306 C118.119,35.875 118.784,36.571 119.338,37.198 L120.176,36.986 L120.24,36.69 C119.399,35.723 119.536,35.387 120.726,34.114 L123.157,31.512 C124.579,29.993 126.131,29.132 127.269,30.2 C128.198,31.072 127.552,32.142 126.469,33.301 L123.38,36.605 C122.155,37.916 121.883,38.054 121.073,37.473 L120.236,37.684 L120.172,37.981 C120.889,38.546 121.569,39.113 122.25,39.754 C122.857,40.323 123.523,41.02 124.077,41.646 L124.916,41.435 L124.979,41.138 C124.139,40.171 124.276,39.835 125.465,38.563 L128.555,35.258 C130.632,33.036 130.878,31.021 129.323,29.562 C128.129,28.441 126.287,28.851 125.172,29.016 C125.485,27.92 125.969,26.413 124.584,25.114 C123.295,23.904 121.729,24.36 120.397,24.643 L120.395,24.569 L122.271,22.943 L118.936,20.953 L118.097,21.164 L118.034,21.461 C118.868,22.244 118.873,22.391 117.522,23.835 L113.901,27.709" id="Fill-2" fill="#f6892a"></path>
            <path d="M78.961,19.297 C79.793,19.342 80.749,19.446 81.577,19.569 L82.081,18.867 L81.938,18.599 C80.673,18.4 80.56,18.056 80.647,16.316 L81.112,7.124 L77.279,7.749 L76.774,8.451 L76.918,8.719 C78.06,8.781 78.159,8.89 78.06,10.864 L77.791,16.161 C77.702,17.953 77.584,18.233 76.591,18.309 L76.086,19.011 L76.229,19.279 C77.142,19.25 78.027,19.246 78.961,19.297" id="Fill-3" fill="#f6892a"></path>
            <path d="M110.758,16.841 C112.392,17.753 111.117,21.121 109.753,23.575 C108.492,25.849 107.109,26.893 105.996,26.272 C104.339,25.348 105.386,22.389 106.875,19.707 C108.011,17.661 109.373,16.068 110.758,16.841 Z M103.725,19.17 C102.286,21.761 102.242,25.428 105.307,27.138 C107.873,28.57 111.138,27.295 113.031,23.886 C114.723,20.84 114.217,17.521 111.288,15.886 C108.631,14.404 105.391,16.169 103.725,19.17 L103.725,19.17 Z" id="Fill-4" fill="#f6892a"></path>
            <g id="Group-8" transform="translate(57.000000, 0.000000)">
                <mask id="mask-2" fill="white">
                    <use xlink:href="#path-1"></use>
                </mask>
                <g id="Clip-6"></g>
                <path d="M7.336,3.42 C11.198,2.875 13.498,5.177 14.216,10.59 C14.773,14.791 14.112,18.298 10.378,18.824 C8.55,19.082 8.242,18.732 8.026,17.108 L6.229,3.576 L7.336,3.42 Z M3.303,6.037 L4.833,17.558 C5.06,19.259 4.937,19.723 3.572,19.915 L3.206,20.702 L3.426,20.986 C4.498,20.756 5.752,20.527 6.833,20.374 C8.121,20.193 9.399,20.144 10.712,19.959 C16.119,19.196 18.422,15.799 17.611,9.691 C16.79,3.505 12.693,1.483 8.264,2.108 C7.132,2.267 5.835,2.581 4.497,2.77 C3.467,2.915 2.378,3.016 1.339,3.084 L0.971,3.871 L1.193,4.155 C2.813,3.926 3.061,4.207 3.303,6.037 L3.303,6.037 Z" id="Fill-5" fill="#f6892a" mask="url(#mask-2)"></path>
                <path d="M22.519,5.162 C23.582,5.22 24.312,4.166 24.368,3.076 C24.424,1.959 23.803,0.832 22.74,0.774 C21.702,0.718 20.946,1.77 20.889,2.887 C20.833,3.978 21.479,5.106 22.519,5.162" id="Fill-7" fill="#f6892a" mask="url(#mask-2)"></path>
            </g>
            <path d="M88.123,13.733 C88.578,11.543 89.503,9.767 90.854,10.038 C92.41,10.349 92.57,13.033 92.051,15.528 C91.602,17.692 90.758,20.095 89.05,19.752 C87.419,19.425 87.621,16.151 88.123,13.733 Z M81.194,25.364 L81.293,25.649 C82.202,25.751 83.079,25.874 83.997,26.058 C84.966,26.252 86.102,26.533 87.055,26.804 L87.662,26.183 L87.561,25.898 C85.88,25.428 85.771,25.061 86.124,23.356 L87.029,19.002 C87.664,20.164 88.098,20.887 89.474,21.163 C92.456,21.761 94.422,18.946 95.099,15.688 C95.686,12.862 95.352,9.348 92.447,8.766 C90.561,8.388 89.491,9.446 88.498,10.387 L88.459,10.326 L89.286,8.132 L85.394,8.201 L84.788,8.822 L84.888,9.107 C86.009,9.332 86.091,9.454 85.688,11.389 L83.32,22.794 C82.956,24.55 82.795,24.81 81.8,24.743 L81.194,25.364 L81.194,25.364 Z" id="Fill-9" fill="#f6892a"></path>
            <path d="M136.341,40.282 C137.225,41.599 135.495,42.894 134.104,43.808 L132.061,40.765 C133.146,40.05 135.398,38.879 136.341,40.282 Z M126.64,46.73 C127.958,48.694 129.914,49.088 130.87,49.206 L132.159,48.607 L132.136,48.341 C131.036,48.194 129.392,48.031 128.494,46.692 C127.043,44.534 130.105,42.051 131.236,41.308 L134.003,45.431 C134.786,46.597 135.069,46.598 136.023,45.969 C138.108,44.596 138.802,41.992 137.311,39.768 C135.456,37.005 131.922,37.432 129.034,39.334 C126.666,40.892 124.698,43.837 126.64,46.73 L126.64,46.73 Z" id="Fill-10" fill="#f6892a"></path>
            <path d="M148.536,68.149 L147.181,64.505 L146.395,64.141 L146.159,64.331 C146.319,65.464 146.229,65.581 144.272,65.852 L139.019,66.58 C137.241,66.826 136.944,66.762 136.677,65.801 L135.891,65.438 L135.655,65.628 C135.86,66.518 136.035,67.387 136.165,68.313 C136.281,69.137 136.364,70.097 136.403,70.932 L137.189,71.295 L137.425,71.105 C137.299,69.836 137.693,69.651 139.417,69.412 L142.947,68.923 C144.877,68.656 146.765,68.998 146.972,70.466 C147.16,71.805 145.823,72.199 144.407,72.396 L139.927,73.016 C138.149,73.262 137.852,73.198 137.584,72.238 L136.799,71.874 L136.563,72.064 C136.767,72.955 136.941,73.823 137.073,74.75 C137.188,75.574 137.271,76.533 137.311,77.368 L138.097,77.731 L138.333,77.541 C138.209,76.298 138.6,76.087 140.326,75.848 L145.219,75.171 C147.743,74.821 149.269,73.35 148.978,71.29 C148.746,69.643 147.225,68.908 146.008,68.289 L146.052,68.231 L148.536,68.149" id="Fill-11" fill="#f6892a"></path>
            <path d="M143.706,56.423 C144.031,57.52 143.961,57.65 142.072,58.229 L137,59.782 C135.285,60.308 134.981,60.292 134.577,59.383 L133.747,59.147 L133.542,59.373 C133.876,60.223 134.177,61.055 134.445,61.952 C134.681,62.75 134.905,63.687 135.068,64.508 L135.896,64.743 L136.101,64.517 C135.863,63.258 136.148,63.034 137.814,62.524 L146.615,59.828 L144.739,56.433 L143.91,56.197 L143.706,56.423" id="Fill-12" fill="#f6892a"></path>
            <path d="M146.813,95.321 C146.465,96.868 144.328,96.536 142.702,96.182 L143.508,92.605 C144.778,92.882 147.185,93.672 146.813,95.321 Z M142.459,89.45 C139.69,88.847 136.187,89.494 135.42,92.893 C134.901,95.201 135.964,96.87 136.538,97.633 L137.864,98.135 L138.042,97.934 C137.39,97.047 136.374,95.761 136.728,94.189 C137.3,91.653 141.22,92.107 142.542,92.395 L141.451,97.24 C141.142,98.609 141.335,98.811 142.454,99.055 C144.893,99.586 147.269,98.267 147.857,95.655 C148.59,92.408 145.839,90.186 142.459,89.45 L142.459,89.45 Z" id="Fill-13" fill="#f6892a"></path>
            <path d="M144.385,84.416 C142.749,84.338 141.56,84.177 141.635,82.801 C141.708,81.451 144.169,81.178 145.857,81.259 C147.339,81.329 148.693,81.811 148.635,82.875 C148.559,84.277 146.099,84.498 144.385,84.416 Z M134.042,85.951 C132.25,85.866 131.488,84.085 131.57,82.579 C131.664,80.84 132.833,79.933 134.132,79.995 C135.066,80.04 135.751,80.359 136.333,80.699 C135.661,83.972 136.042,86.047 134.042,85.951 Z M145.375,78.633 C142.779,78.508 141.827,79.738 141.094,80.744 C140.542,79.885 139.913,79.022 138.51,78.955 C137.653,78.914 137.1,79.512 136.58,79.982 C135.98,79.016 135.135,77.804 133.628,77.732 C131.708,77.64 130.661,79.178 130.534,81.515 C130.347,84.968 131.933,87.881 135.102,88.032 C138.01,88.171 138.612,85.727 138.743,83.313 C138.831,81.677 139.162,80.86 139.863,80.894 C140.252,80.912 140.573,81.24 140.871,81.515 C140.773,81.874 140.729,82.211 140.709,82.574 C140.573,85.092 142.193,86.914 144.919,87.044 C146.426,87.116 147.469,86.594 148.211,85.874 L148.26,85.929 L147.52,88.08 L148.832,88.845 L149.155,88.652 L149.021,84.872 C149.237,84.257 149.427,83.616 149.465,82.941 C149.606,80.319 147.765,78.747 145.375,78.633 L145.375,78.633 Z" id="Fill-14" fill="#f6892a"></path>
            <g id="Group-18" transform="translate(130.000000, 55.000000)" fill="#f6892a">
                <path d="M14.397,47.307 C13.965,48.366 13.829,48.422 12.004,47.663 L7.106,45.627 C5.449,44.938 5.226,44.732 5.479,43.768 L4.985,43.055 L4.686,43.1 C4.413,43.972 4.125,44.81 3.771,45.676 C3.456,46.446 3.042,47.316 2.656,48.056 L3.151,48.769 L3.449,48.724 C3.98,47.565 4.414,47.605 6.022,48.274 L9.312,49.641 C11.113,50.39 12.565,51.642 12.004,53.013 C11.491,54.265 10.141,53.928 8.821,53.379 L4.643,51.642 C2.987,50.953 2.761,50.747 3.017,49.783 L2.521,49.07 L2.223,49.115 C1.949,49.987 1.663,50.825 1.308,51.691 C0.991,52.461 0.58,53.331 0.191,54.071 L0.687,54.784 L0.987,54.739 C1.508,53.604 1.951,53.62 3.559,54.289 L8.121,56.185 C10.474,57.164 12.531,56.667 13.319,54.743 C13.949,53.203 13.008,51.798 12.271,50.647 L12.34,50.618 L14.521,51.807 L15.191,47.975 L14.697,47.263 L14.397,47.307" id="Fill-15"></path>
                <path d="M22.125,1.372 C21.83,0.376 20.585,0.022 19.517,0.35 C18.473,0.67 17.627,1.663 17.924,2.66 C18.228,3.682 19.464,4.01 20.508,3.69 C21.577,3.362 22.428,2.394 22.125,1.372" id="Fill-17"></path>
            </g>
            <path d="M130.858,51.046 L129.997,50.924 L129.827,51.173 C130.285,51.964 130.708,52.743 131.105,53.59 C131.527,54.484 131.977,55.564 132.326,56.491 L133.188,56.613 L133.358,56.364 C132.607,54.706 132.966,54.429 134.552,53.708 L137.344,52.438 C138.22,52.04 140.779,51.249 141.277,52.307 C141.476,52.731 140.94,53.488 140.55,54.123 L143.491,54.27 L143.848,54.109 C143.928,53.672 144.169,52.534 143.938,52.04 C143.496,51.099 141.576,51.172 139.624,51.174 L139.648,51.105 L142.932,49.899 L140.559,46.808 L139.697,46.686 L139.527,46.934 C140.014,47.97 139.962,48.107 138.164,48.925 L133.334,51.12 C131.702,51.862 131.397,51.887 130.858,51.046" id="Fill-19" fill="#f6892a"></path>
            <path d="M38.271,23.372 C47.105,17.078 53.156,15.494 53.244,15.471 L53.247,15.471 L52.883,14.016 L52.521,12.56 C52.256,12.626 45.9,14.252 36.53,20.929 C26.74,27.902 23.018,32.908 22.863,33.118 L25.281,34.893 C25.316,34.846 28.929,30.027 38.271,23.372" id="Fill-20" fill="#f6892a"></path>
            <path d="M122.867,130.315 C114.469,138.02 109.173,140.081 109.125,140.099 L110.17,142.911 C110.404,142.824 115.999,140.688 124.895,132.526 C133.369,124.752 136.422,118.658 136.548,118.402 L133.856,117.078 C133.828,117.136 130.931,122.918 122.867,130.315" id="Fill-21" fill="#f6892a"></path>
            <path d="M60.573,121.731 C60.036,121.88 59.578,122.024 59.15,122.178 C61.584,122.215 64.001,122.328 66.662,122.461 C65.65,121.883 64.592,121.563 63.433,121.485 C62.351,121.411 61.443,121.489 60.573,121.731" id="Fill-22" fill="#f6892a"></path>
            <path d="M48.883,41.097 C48.538,41.272 48.242,41.428 47.979,41.574 C47.31,41.944 46.688,42.316 46.08,42.71 C46.053,42.728 46.028,42.744 46.001,42.761 C46.267,42.828 46.517,42.905 46.747,42.992 L47.946,42.266 C49.462,41.349 50.859,40.717 52.216,40.333 C53.242,40.042 54.309,39.896 55.404,39.896 C55.943,39.896 56.487,39.93 57.036,40.001 C58.237,40.155 59.32,40.587 60.343,41.323 C61.019,41.809 61.652,42.407 62.278,43.152 C63.292,44.361 64.221,45.771 65.188,47.575 L65.188,44.751 L62.814,42.126 C62.115,41.353 61.425,40.755 60.704,40.3 L60.612,40.245 C59.904,39.812 59.181,39.52 58.397,39.353 C58.256,39.322 57.271,39.145 56.844,39.126 C56.737,39.122 56.632,39.116 56.524,39.11 C56.314,39.098 56.1,39.086 55.889,39.086 C54.299,39.086 52.696,39.417 51.125,40.067 C50.362,40.383 49.609,40.73 48.883,41.097" id="Fill-23" fill="#f6892a"></path>
            <path d="M68.146,122.071 C68.321,122.185 68.499,122.302 68.683,122.417 L68.931,122.573 C70.189,122.633 71.84,122.706 73.547,122.745 C73.29,122.56 73.032,122.376 72.78,122.195 C72.311,121.862 71.767,121.475 71.235,121.086 C70.89,120.834 70.549,120.571 70.248,120.339 L70.203,120.305 C69.661,119.886 69.1,119.454 68.522,119.071 C67.015,118.078 65.263,117.747 63.904,117.571 C61.728,117.285 59.519,117.43 57.337,118.002 C55.758,118.414 54.387,119.013 53.147,119.831 C51.845,120.69 50.565,121.485 49.341,122.194 C49.259,122.242 49.168,122.291 49.064,122.343 C51.684,122.239 54.208,122.179 56.569,122.165 L56.812,122.024 C57.512,121.618 58.245,121.29 58.991,121.05 C60.302,120.627 61.597,120.253 63.006,120.339 C64.148,120.404 65.113,120.613 66.336,121.063 C66.945,121.286 67.519,121.661 68.128,122.059 L68.146,122.071" id="Fill-24" fill="#f6892a"></path>
            <path d="M44.002,37.615 C43.529,37.582 43.057,37.547 42.588,37.513 L41.6,39.049 C42.215,38.632 42.856,38.265 43.424,37.937 C43.615,37.828 43.812,37.719 44.002,37.615" id="Fill-25" fill="#f6892a"></path>
            <path d="M50.588,38.197 C49.347,38.581 48.199,39.245 47.089,39.888 L46.596,40.173 C45.921,40.558 45.205,40.847 44.529,41.109 C43.73,41.42 43.063,41.835 42.494,42.376 C43.216,42.396 43.835,42.432 44.383,42.49 C45.188,41.876 46.004,41.355 46.81,40.937 C47.009,40.834 47.209,40.73 47.409,40.625 L47.55,40.55 C48.457,40.074 49.391,39.583 50.352,39.174 C51.771,38.57 52.932,38.237 54.185,38.088 C53.18,38.067 52.148,38.036 51.109,37.999 L50.588,38.197" id="Fill-26" fill="#f6892a"></path>
            <path d="M40.691,41.355 L40.667,41.382 L41.135,42.185 C41.688,41.477 42.297,40.961 42.995,40.609 C43.305,40.452 43.638,40.307 43.905,40.191 L43.949,40.172 C44.224,40.051 44.502,39.929 44.767,39.796 C45.673,39.339 46.569,38.866 47.431,38.391 C47.755,38.213 48.091,38.041 48.431,37.88 C47.634,37.84 46.854,37.797 46.11,37.752 L45.831,37.904 C45.222,38.237 44.617,38.57 44.022,38.897 L42.588,39.686 C41.843,40.093 41.288,40.683 40.691,41.355" id="Fill-27" fill="#f6892a"></path>
            <path d="M50.265,64.857 L50.3,64.872 C50.496,64.958 50.664,65.024 50.829,65.081 C50.852,65.089 50.873,65.096 50.895,65.103 L50.93,65.114 C51.158,65.188 51.346,65.242 51.522,65.28 L51.58,65.294 C52.068,65.394 52.557,65.446 53.033,65.447 L53.121,65.448 C53.158,65.448 53.196,65.449 53.232,65.447 C54.362,65.412 55.39,65.061 56.29,64.403 C56.643,64.146 56.975,63.844 57.279,63.506 C58.699,61.924 59.696,59.979 60.484,58.287 C60.712,57.795 60.936,57.267 61.19,56.622 C61.408,56.07 61.616,55.511 61.773,55.086 L62.023,54.408 C62.263,53.755 62.519,52.992 62.519,52.196 C62.519,52.186 62.52,52.169 62.521,52.146 C62.549,51.114 62.388,50.334 62.249,49.863 C61.747,48.163 60.955,46.646 59.897,45.359 C58.545,43.711 56.875,42.875 54.933,42.875 C54.747,42.875 54.551,42.883 54.352,42.899 C53.592,42.961 52.811,43.133 51.967,43.424 C51.492,43.587 51.003,43.784 50.471,44.026 C49.966,44.255 49.464,44.51 48.937,44.805 C49.096,45.084 49.232,45.396 49.352,45.755 C49.823,45.454 50.315,45.187 50.814,44.965 C50.859,44.946 50.905,44.927 50.952,44.91 L51.083,44.857 C51.238,44.791 51.415,44.715 51.595,44.652 C52.131,44.458 52.689,44.299 53.253,44.18 C53.389,44.152 53.532,44.129 53.689,44.11 C54.618,43.995 55.546,44.142 56.445,44.547 C56.674,44.65 56.872,44.751 57.05,44.857 C58.76,45.879 59.905,47.424 60.55,49.584 C60.82,50.49 60.97,51.327 60.962,51.881 C60.967,52.77 60.868,53.58 60.652,54.432 C60.502,55.02 60.296,55.629 60.003,56.349 C59.813,56.816 59.58,57.29 59.293,57.799 L59.261,57.859 C59.246,57.888 59.231,57.917 59.214,57.947 C58.908,58.475 58.547,59.018 58.141,59.56 C57.437,60.497 56.542,61.538 55.23,62.139 C54.935,62.274 54.627,62.382 54.287,62.467 C53.871,62.572 53.462,62.625 53.07,62.625 C52.503,62.625 51.929,62.526 51.36,62.33 C51.152,62.257 50.935,62.17 50.697,62.063 L50.605,62.022 C50.407,61.931 50.204,61.828 50,61.714 L49.997,61.713 L49.997,64.733 L50.165,64.813 C50.198,64.828 50.232,64.843 50.265,64.857" id="Fill-28" fill="#f6892a"></path>
            <path d="M63.101,40.825 C63.767,41.546 64.445,42.288 65.044,42.946 L65.188,43.104 L65.188,42.971 L66.971,42.971 C66.331,42.475 65.75,41.93 65.163,41.37 L65,41.215 C63.999,40.262 63.004,39.346 61.838,38.618 C61.646,38.497 61.435,38.38 61.174,38.247 L60.841,38.078 C60.691,38.082 58.939,38.122 57.831,38.128 C58.26,38.198 58.694,38.279 59.115,38.392 C60.649,38.805 61.99,39.624 63.101,40.825" id="Fill-29" fill="#f6892a"></path>
            <path d="M49.997,88.934 C50.997,87.873 52.142,86.977 53.402,86.27 C54.251,85.793 55.116,85.556 56.014,85.556 C56.594,85.556 57.189,85.655 57.803,85.853 C59.304,86.336 60.538,87.245 61.732,88.124 L61.775,88.155 C62.93,89.006 64.047,89.776 65.188,90.508 L65.188,87.693 L65.175,87.682 C64.837,87.386 64.53,87.112 64.238,86.842 L63.631,86.28 C62.413,85.148 61.362,84.171 59.929,83.248 C59.108,82.72 58.177,82.121 57.004,81.965 C55.49,81.76 54.632,82.395 54.219,82.699 C54.143,82.755 54.081,82.8 54.032,82.83 C53.909,82.906 51.41,84.727 51.043,85.027 C50.825,85.206 50.601,85.387 50.378,85.569 L49.997,85.878 L49.997,88.934" id="Fill-30" fill="#f6892a"></path>
            <path d="M65.188,55.807 C65.003,56.208 64.82,56.61 64.631,57.01 C64.543,57.198 64.455,57.383 64.367,57.569 L64.134,58.059 C63.953,58.443 63.771,58.828 63.592,59.205 C63.267,59.889 62.941,60.573 62.619,61.258 C62.398,61.726 62.18,62.196 61.961,62.666 L61.825,62.959 C61.544,63.561 61.227,64.243 60.909,64.91 C60.509,65.749 59.997,66.713 59.217,67.506 C58.855,67.873 58.487,68.161 58.09,68.388 C57.407,68.776 56.649,69.086 55.898,69.285 C55.196,69.471 54.494,69.571 53.981,69.643 C53.896,69.655 53.818,69.66 53.748,69.664 C53.685,69.667 53.631,69.67 53.583,69.678 C53.556,69.682 53.331,69.685 53.13,69.685 C53.008,69.685 52.782,69.684 52.646,69.674 L52.455,69.659 C52.227,69.641 51.989,69.616 51.748,69.586 L51.654,69.574 C51.085,69.496 50.543,69.388 49.998,69.242 L49.998,71.599 L50.141,71.643 C50.269,71.682 50.402,71.722 50.534,71.756 L50.613,71.777 C50.669,71.792 50.725,71.807 50.78,71.82 L50.83,71.831 C51.742,72.043 52.687,72.167 53.523,72.276 L53.883,72.323 C54.118,72.355 54.355,72.382 54.61,72.407 C55.516,72.497 56.335,72.515 57.117,72.465 C57.503,72.438 57.855,72.398 58.191,72.342 C58.69,72.261 59.106,72.128 59.465,71.936 L59.522,71.908 C59.64,71.843 59.753,71.767 59.861,71.686 C60.374,71.291 60.769,70.756 61.101,70.001 C61.225,69.717 61.342,69.404 61.47,69.016 C61.694,68.337 61.883,67.639 62.058,66.983 L62.125,66.732 C62.151,66.641 62.175,66.55 62.2,66.46 L62.214,66.405 C62.314,66.021 62.419,65.624 62.528,65.237 C62.667,64.733 62.824,64.228 62.994,63.739 C63.505,62.263 64.146,60.854 64.902,59.552 C64.95,59.47 65.001,59.388 65.052,59.306 L65.076,59.27 C65.1,59.232 65.123,59.194 65.146,59.156 L65.188,59.088 L65.188,55.807" id="Fill-31" fill="#f6892a"></path>
            <path d="M65.188,107.457 L65.146,107.447 C64.917,107.403 64.707,107.357 64.504,107.306 C63.807,107.133 63.101,106.89 62.407,106.584 C61.285,106.09 60.424,105.295 59.591,104.526 C59.356,104.308 59.107,104.101 58.866,103.9 C58.59,103.669 58.311,103.437 58.044,103.186 C57.444,102.617 57.057,102.003 56.894,101.362 C56.847,101.175 56.824,100.968 56.824,100.729 C56.824,100.632 56.828,100.53 56.835,100.416 C56.841,100.313 56.849,100.211 56.858,100.11 L56.877,99.854 C56.886,99.73 56.898,99.606 56.91,99.482 L56.94,99.154 C56.948,99.053 56.956,98.955 56.966,98.858 C57.003,98.491 57.031,98.163 57.05,97.854 L57.057,97.748 C57.064,97.647 57.071,97.55 57.073,97.454 C57.077,97.277 57.078,97.102 57.08,96.925 C57.088,96.069 57.096,95.184 57.392,94.31 C57.53,93.903 57.734,93.558 57.998,93.284 L58.012,93.267 C58.025,93.252 58.037,93.237 58.051,93.224 C58.071,93.204 58.094,93.187 58.118,93.169 C58.131,93.16 58.14,93.153 58.15,93.146 L58.18,93.118 C58.242,93.066 58.297,93.02 58.359,92.979 C58.477,92.903 58.591,92.844 58.705,92.796 C58.786,92.763 58.872,92.741 58.955,92.718 C58.988,92.71 58.999,92.706 59.011,92.702 C59.036,92.693 59.061,92.686 59.088,92.68 C59.35,92.625 59.638,92.612 59.945,92.642 C60.756,92.729 61.564,92.889 62.346,93.124 C63.31,93.409 64.265,93.736 65.188,94.096 L65.188,91.787 C64.323,91.233 63.43,90.64 62.375,89.921 C62.188,89.793 62.006,89.668 61.828,89.546 L61.778,89.511 C61.579,89.376 61.386,89.241 61.2,89.112 L61.179,89.098 C60.969,88.952 60.76,88.804 60.552,88.655 C59.661,88.02 58.824,87.423 57.853,87.056 C57.706,87.001 57.567,86.954 57.428,86.914 C56.824,86.736 56.139,86.536 55.471,86.674 C54.91,86.792 54.319,87.032 53.666,87.415 L53.657,87.42 C53.504,87.509 53.359,87.594 53.206,87.695 C52.936,87.871 52.662,88.068 52.389,88.278 C52.373,88.291 52.358,88.303 52.342,88.316 L52.272,88.375 C52.017,88.575 51.797,88.761 51.598,88.94 L51.529,89.006 C51.279,89.235 51.058,89.452 50.852,89.669 L50.825,89.699 C50.592,89.945 50.361,90.209 50.138,90.481 L49.997,90.653 L49.997,96.125 L50.177,96.204 C50.267,96.246 50.356,96.288 50.445,96.333 C51.262,96.734 52.113,97.205 52.803,97.921 C53.528,98.678 53.833,99.595 54.128,100.482 L54.22,100.757 C54.582,101.825 55.075,102.569 55.772,103.098 C56.398,103.574 56.876,103.995 57.277,104.425 C58.376,105.603 59.67,106.506 61.235,107.19 C61.67,107.38 62.074,107.537 62.47,107.669 C62.734,107.756 63.035,107.844 63.392,107.937 C63.952,108.083 64.54,108.209 65.191,108.322 C65.189,108.109 65.188,107.891 65.188,107.669 L65.188,107.457" id="Fill-32" fill="#f6892a"></path>
            <path d="M63.351,66.545 C62.938,68.248 62.53,69.775 61.722,71.199 C60.971,72.527 59.818,73.266 58.199,73.456 C57.444,73.546 56.768,73.589 56.132,73.589 C55.648,73.589 54.247,73.457 54.233,73.455 C53.145,73.333 52.025,73.208 50.944,72.992 C50.665,72.937 50.355,72.859 49.998,72.754 L49.998,84.441 L52.954,82.236 C53.951,81.453 54.908,80.995 55.72,80.913 C55.93,80.89 56.143,80.879 56.357,80.879 C57.762,80.879 59.238,81.365 60.495,82.255 C61.816,83.19 63.035,84.272 64.214,85.317 L64.222,85.324 C64.549,85.615 64.868,85.896 65.188,86.175 L65.188,61.387 C65.132,61.498 65.076,61.609 65.023,61.72 C64.335,63.165 63.788,64.743 63.351,66.545" id="Fill-33" fill="#f6892a"></path>
            <path d="M49.997,55.086 L50.14,55.27 C50.58,55.835 51.142,56.304 51.858,56.702 C52.831,57.243 53.732,57.221 54.612,56.636 C56.047,55.681 56.831,54.247 56.942,52.375 C56.939,51.16 56.644,50.142 56.065,49.353 C55.405,48.452 54.262,48.132 53.411,48.132 C53.029,48.132 52.669,48.195 52.373,48.315 C51.419,48.703 50.358,49.537 49.956,50.079 C49.984,50.814 49.997,51.644 49.997,52.618 L49.997,55.086" id="Fill-34" fill="#f6892a"></path>
            <path d="M50.413,112.192 C50.685,112.074 50.959,111.956 51.232,111.84 C53.506,110.888 55.611,110.553 57.668,110.814 C59.093,110.995 60.533,111.223 61.926,111.444 L62.22,111.49 C63.005,111.614 64.187,111.802 65.441,112.012 C65.408,111.807 65.379,111.591 65.353,111.368 C64.661,111.265 64.027,111.159 63.414,111.044 C62.56,110.884 61.645,110.666 60.535,110.358 C59.838,110.163 59.122,109.944 58.491,109.75 L58.48,109.747 C57.94,109.58 57.364,109.404 56.786,109.238 L56.468,109.147 C55.463,108.858 54.423,108.559 53.394,108.331 C52.682,108.173 51.955,108.05 51.252,107.93 L51.223,107.925 C50.805,107.854 50.394,107.781 50.003,107.708 L49.997,107.707 C49.997,109.821 49.932,111.293 49.789,112.461 C49.968,112.384 50.147,112.307 50.324,112.23 L50.413,112.192" id="Fill-35" fill="#f6892a"></path>
            <path d="M42.391,118.235 C42.847,118.155 43.252,118.139 43.692,118.129 L44.955,118.101 C45.712,118.04 46.6,117.924 47.425,117.528 C48.233,117.141 49.042,116.72 49.824,116.312 L49.882,116.281 C50.481,115.968 51.1,115.645 51.732,115.331 C52.986,114.707 54.214,114.252 55.486,113.943 C57.772,113.388 60.017,113.533 61.717,113.723 C62.033,113.758 62.35,113.791 62.667,113.823 C63.643,113.924 64.643,114.027 65.625,114.198 C65.795,114.228 65.963,114.263 66.127,114.298 C65.96,113.972 65.821,113.614 65.704,113.207 L65.429,113.16 C65.204,113.121 64.979,113.082 64.758,113.045 L64.107,112.934 C61.941,112.566 60.217,112.283 58.682,112.045 C57.293,111.829 55.807,111.678 54.352,112.038 C53.292,112.3 52.215,112.659 51.15,113.104 L50.689,113.297 C50.311,113.456 49.994,113.588 49.69,113.711 L49.571,113.759 C48.873,116.871 47.107,117.925 42.588,117.928 L42.391,118.235" id="Fill-36" fill="#f6892a"></path>
            <path d="M62.565,108.872 C60.942,108.414 59.442,107.669 58.107,106.656 C57.713,106.357 57.351,106.024 57.001,105.702 C56.854,105.566 56.725,105.447 56.594,105.33 C56.441,105.192 56.297,105.054 56.124,104.888 C55.834,104.608 55.538,104.324 55.224,104.095 C54.29,103.418 53.632,102.467 53.153,101.104 C52.886,100.341 52.634,99.661 52.263,99.054 C51.748,98.213 50.821,97.76 50.002,97.36 L49.997,97.357 L49.997,106.583 L50.061,106.598 C50.128,106.614 50.191,106.63 50.26,106.642 C50.679,106.719 51.098,106.793 51.517,106.868 L51.713,106.903 C52.764,107.09 53.849,107.283 54.913,107.504 C55.393,107.604 55.86,107.76 56.312,107.911 C56.549,107.99 56.794,108.072 57.035,108.144 L57.859,108.389 C58.851,108.685 59.975,109.02 61.07,109.323 C61.907,109.555 62.948,109.844 63.954,110.026 C64.34,110.096 64.765,110.164 65.254,110.235 C65.241,110.018 65.229,109.776 65.218,109.48 C64.291,109.342 63.395,109.106 62.565,108.872" id="Fill-37" fill="#f6892a"></path>
            <path d="M49.995,48.515 L50.027,48.485 C50.058,48.456 50.089,48.426 50.121,48.398 C50.183,48.343 50.246,48.289 50.311,48.236 C50.368,48.188 50.428,48.142 50.489,48.097 L50.519,48.074 C50.559,48.043 50.599,48.013 50.64,47.983 C50.77,47.891 50.888,47.814 51.002,47.745 C51.247,47.599 51.502,47.472 51.76,47.369 C51.897,47.314 52.035,47.266 52.184,47.222 L52.242,47.205 C54.275,46.629 56.323,47.453 57.336,49.252 C57.451,49.456 57.538,49.633 57.609,49.81 C58.147,51.144 58.198,52.576 57.759,54.066 C57.553,54.773 57.259,55.408 56.888,55.952 C56.517,56.497 56.051,56.978 55.503,57.379 C55.433,57.431 55.358,57.481 55.269,57.539 L55.196,57.588 C54.533,58.004 53.889,58.206 53.226,58.206 C52.503,58.206 51.769,57.97 50.98,57.486 C50.625,57.269 50.294,57.024 49.997,56.757 L49.997,60.392 L50.107,60.466 C50.574,60.778 50.999,61.012 51.407,61.178 L51.43,61.188 C51.53,61.228 51.621,61.261 51.709,61.291 L51.769,61.309 C51.849,61.335 51.929,61.36 52.009,61.381 C52.035,61.387 52.063,61.393 52.092,61.399 L52.187,61.421 C52.227,61.43 52.267,61.44 52.308,61.447 C52.413,61.466 52.515,61.481 52.613,61.492 C52.972,61.53 53.323,61.524 53.656,61.474 C53.834,61.447 53.997,61.411 54.154,61.366 C54.688,61.213 55.221,60.924 55.737,60.509 C56.019,60.283 56.269,60.048 56.503,59.792 C56.941,59.312 57.346,58.798 57.707,58.262 C58.312,57.367 58.817,56.382 59.208,55.336 C59.494,54.571 59.825,53.554 59.848,52.467 C59.88,51.028 59.556,49.668 58.884,48.424 C58.745,48.167 58.597,47.921 58.443,47.692 C57.376,46.109 55.989,45.294 54.204,45.203 C54.196,45.205 54.174,45.202 54.141,45.2 C53.954,45.189 53.384,45.154 52.551,45.402 C51.521,45.71 50.722,46.23 50.017,46.689 C49.954,46.73 49.895,46.773 49.835,46.816 L49.654,46.937 C49.746,47.43 49.818,47.986 49.871,48.632 C49.912,48.593 49.954,48.554 49.995,48.515" id="Fill-38" fill="#f6892a"></path>
            <path d="M100.832,113.855 C99.685,114.816 98.735,116.074 97.85,117.806 C100.426,116.331 102.738,114.5 104.725,112.36 C104.375,112.359 104.06,112.376 103.768,112.419 C102.772,112.565 101.812,113.035 100.832,113.855" id="Fill-39" fill="#f6892a"></path>
            <path d="M88.944,47.879 C90.859,47.385 92.506,48.185 93.583,50.131 C94.369,51.554 94.264,53.065 93.272,54.624 C93.227,54.695 93.18,54.765 93.132,54.834 L93.057,54.946 C93.396,55.541 93.741,56.215 94.111,57.003 C94.755,56.282 95.412,55.516 96.118,54.662 C97.353,53.168 97.517,51.505 96.606,49.72 C95.826,48.193 94.929,47.011 93.864,46.106 C92.869,45.262 91.624,44.714 89.944,44.381 C89.163,44.227 88.352,44.233 87.568,44.239 L87.552,44.239 C86.901,44.243 86.229,44.249 85.553,44.164 C84.641,44.049 83.673,43.892 82.896,43.766 C82.295,43.669 81.273,43.491 80.672,43.381 C79.771,43.216 78.578,43.241 78.568,43.241 C77.7,43.246 76.951,43.381 76.543,43.472 C80.843,44.222 84.544,45.848 87.545,48.306 C88.074,48.124 88.519,47.989 88.944,47.879" id="Fill-40" fill="#f6892a"></path>
            <path d="M114.815,79.221 C114.815,71.864 113.687,65.297 111.462,59.698 C111.45,59.763 111.437,59.83 111.428,59.896 C111.361,60.365 111.299,60.831 111.231,61.348 C111.125,62.154 111.004,63.067 110.857,63.949 L110.823,64.156 C110.63,65.326 110.43,66.536 109.848,67.65 C109.164,68.956 108.052,69.804 106.543,70.172 C105.318,70.47 104.076,70.497 102.875,70.522 L102.609,70.529 C101.038,70.566 99.558,70.583 98.084,70.583 L97.769,70.582 C97.851,71.225 97.914,71.769 97.966,72.288 C98.98,72.165 99.933,72.103 100.849,72.103 C101.334,72.103 101.809,72.121 102.277,72.155 C104.809,72.342 106.797,72.859 108.535,73.783 C110.295,74.718 111.382,76.043 112.061,78.081 C112.136,78.305 112.204,78.516 112.268,78.715 C112.545,79.576 112.744,80.196 113.141,80.782 C113.55,81.385 114.132,81.748 114.779,81.805 C114.803,80.938 114.815,80.069 114.815,79.221" id="Fill-41" fill="#f6892a"></path>
            <path d="M110.238,100.893 C110.196,101.215 110.351,101.57 110.674,101.892 C110.782,101.999 110.901,102.098 111.048,102.201 C111.346,101.462 111.638,100.65 111.966,99.656 C111.622,99.781 111.18,99.946 110.814,100.157 C110.475,100.353 110.276,100.607 110.238,100.893" id="Fill-42" fill="#f6892a"></path>
            <path d="M99.959,109.561 C98.1,111.103 96.601,112.957 95.38,114.571 L95.2,114.81 C94.482,115.761 93.74,116.747 92.697,117.474 C90.928,118.707 88.99,119.332 86.938,119.332 L86.742,119.331 C84.733,119.29 82.742,118.78 80.824,117.814 C80.435,117.619 80.038,117.386 79.537,117.061 L79.421,116.984 C78.7,117.103 77.951,117.19 77.192,117.245 L77.371,117.37 C77.625,117.547 77.88,117.726 78.131,117.899 C78.491,118.149 80.617,119.533 82.038,120.092 C82.877,120.424 84.333,120.832 85.491,120.974 C86.588,121.107 87.532,121.22 88.918,121.17 L89.626,121.144 C91.922,120.526 94.1,119.717 96.091,118.739 L96.212,118.54 C96.223,118.521 96.228,118.515 96.232,118.505 C96.687,117.602 97.238,116.542 97.875,115.537 C98.823,114.039 100.032,112.87 101.469,112.061 L101.489,112.05 C102.788,111.324 104.155,111.068 105.552,111.286 L105.656,111.301 C106.348,110.48 106.995,109.627 107.58,108.763 C106.232,108.332 105.103,108.115 104.028,108.083 C102.552,108.04 101.217,108.519 99.959,109.561" id="Fill-43" fill="#f6892a"></path>
            <path d="M101.338,66.583 L101.342,66.583 C102.564,66.496 103.447,66.281 104.201,65.882 C104.977,65.472 105.907,64.733 105.933,63.538 C105.946,62.944 105.846,62.369 105.618,61.728 C105.445,61.237 105.19,60.868 104.842,60.6 C104.347,60.22 103.791,60.036 103.142,60.036 C102.835,60.036 102.502,60.079 102.155,60.163 C101.58,60.3 101.008,60.575 100.518,60.821 C98.944,61.614 97.896,62.725 97.315,64.219 C97.106,64.756 97.144,65.676 97.758,65.935 C99.763,66.781 101.323,66.585 101.338,66.583" id="Fill-44" fill="#f6892a"></path>
            <path d="M91.042,49.07 L91.015,49.059 C90.942,49.024 90.869,48.995 90.799,48.97 C90.787,48.966 90.774,48.962 90.761,48.959 L90.71,48.944 C90.656,48.927 90.605,48.912 90.553,48.901 C90.529,48.896 90.504,48.892 90.479,48.888 L90.436,48.881 C90.375,48.87 90.338,48.864 90.301,48.86 C90.268,48.857 90.234,48.856 90.2,48.854 L90.115,48.85 C90.096,48.85 90.077,48.849 90.058,48.849 L90.013,48.848 C89.942,48.852 89.87,48.856 89.797,48.86 L89.675,48.866 C89.565,48.873 89.475,48.881 89.393,48.898 C89.175,48.944 88.962,49.002 88.726,49.068 C88.65,49.09 88.574,49.113 88.498,49.136 C89.946,50.471 91.256,52.058 92.394,53.855 L92.479,53.731 C92.851,53.18 93.028,52.582 92.992,52.003 C92.98,51.803 92.95,51.604 92.902,51.411 C92.759,50.832 92.458,50.294 92.007,49.812 C91.69,49.472 91.374,49.229 91.042,49.07" id="Fill-45" fill="#f6892a"></path>
            <path d="M110.571,103.238 C110.304,103.068 110.068,102.877 109.852,102.654 C109.272,102.058 109.028,101.302 109.183,100.582 C109.338,99.859 109.874,99.267 110.654,98.959 L110.943,98.844 C111.449,98.644 111.893,98.473 112.3,98.32 L112.406,98.28 C113.069,96.035 113.606,93.547 114.003,90.883 C113.944,91 113.896,91.103 113.856,91.196 C112.892,93.429 111.264,95.04 109.017,95.985 C108.068,96.385 107.076,96.601 106.117,96.812 C105.849,96.87 105.587,96.928 105.325,96.989 C104.112,97.271 102.917,97.707 101.774,98.285 C100.292,99.037 99.019,99.386 97.766,99.386 C97.678,99.386 97.59,99.385 97.502,99.381 C97.171,99.367 96.814,99.327 96.414,99.258 C96.126,100.346 95.797,101.41 95.436,102.421 C95.448,102.43 95.458,102.44 95.466,102.449 C96.154,103.22 96.447,104.198 96.336,105.356 C96.197,106.8 95.532,107.98 94.899,108.944 C93.69,110.786 92.146,112.365 90.658,113.797 L90.576,113.875 C90.044,114.388 89.496,114.917 88.781,115.269 C87.976,115.666 87.144,115.858 86.236,115.858 C85.8,115.858 85.344,115.812 84.879,115.722 C84.817,115.709 84.664,115.668 84.508,115.626 L84.455,115.611 C84.407,115.597 84.364,115.586 84.332,115.578 L84.291,115.567 C83.266,116.017 82.169,116.384 81.029,116.66 C81.13,116.715 81.263,116.784 81.427,116.865 L81.539,116.916 C81.691,116.989 81.871,117.074 82.055,117.151 C84.339,118.103 86.267,118.415 88.122,118.134 C90.505,117.772 92.369,116.685 93.819,114.81 C95.126,113.122 96.227,111.769 97.286,110.552 C98.249,109.445 99.31,108.539 100.44,107.858 C101.654,107.126 103.021,106.851 104.619,107.013 C105.76,107.131 106.922,107.382 108.171,107.78 L108.212,107.793 C109.082,106.401 109.883,104.874 110.593,103.252 L110.571,103.238" id="Fill-46" fill="#f6892a"></path>
            <path d="M65.188,95.303 C64.278,94.961 62.076,94.143 62.076,94.143 C61.646,93.998 60.137,93.634 59.689,93.634 C59.671,93.634 59.654,93.635 59.64,93.636 C58.868,93.676 58.651,93.955 58.427,94.722 C58.305,95.142 58.233,95.625 58.208,96.2 C58.202,96.319 58.201,96.438 58.199,96.559 L58.193,96.839 C58.191,96.913 58.189,96.987 58.189,97.062 C58.188,97.181 58.153,97.582 58.108,98.088 C58.041,98.845 57.949,99.881 57.94,100.393 C57.93,100.94 58.033,101.345 58.273,101.707 C58.36,101.837 58.452,101.954 58.554,102.062 C58.857,102.391 59.207,102.694 59.546,102.987 C59.694,103.115 59.843,103.243 59.989,103.374 C60.159,103.527 60.328,103.686 60.492,103.84 C60.882,104.207 61.282,104.583 61.698,104.889 C62.178,105.24 62.747,105.541 63.437,105.81 C63.873,105.978 64.262,106.105 64.663,106.209 C64.849,106.258 65.029,106.296 65.188,106.329 L65.188,104.654 C64.889,104.616 64.505,104.562 64.127,104.474 C63.647,104.362 63.214,104.17 62.839,103.905 C62.812,103.887 62.795,103.872 62.778,103.858 L62.752,103.834 C62.162,103.389 61.734,102.764 61.483,101.978 C61.427,101.804 61.379,101.632 61.34,101.467 C61.009,100.065 61.562,99.086 62.985,98.557 C63.674,98.301 64.394,98.205 65.188,98.271 L65.188,95.303" id="Fill-47" fill="#f6892a"></path>
            <path d="M86.655,114.727 C87.7,114.618 88.474,114.3 89.091,113.727 C89.442,113.402 89.763,113.1 90.073,112.804 C91.103,111.82 91.856,111.034 92.513,110.254 C92.871,109.828 93.204,109.399 93.502,108.978 C94.314,107.832 95.057,106.686 95.225,105.271 C95.252,105.047 95.255,104.829 95.235,104.604 C95.205,104.268 95.114,103.955 94.964,103.67 C92.906,108.794 89.873,112.518 85.944,114.743 C86.283,114.755 86.566,114.736 86.655,114.727" id="Fill-48" fill="#f6892a"></path>
            <path d="M62.38,101.065 C62.415,101.269 62.475,101.488 62.561,101.716 C62.835,102.445 63.285,102.941 63.938,103.234 C64.294,103.394 64.681,103.497 65.188,103.566 L65.188,99.393 C65.014,99.375 64.871,99.366 64.74,99.366 C64.252,99.366 63.798,99.447 63.352,99.614 C62.53,99.921 62.258,100.328 62.38,101.065" id="Fill-49" fill="#f6892a"></path>
            <path d="M100.231,83.951 L100.362,83.934 C101.838,83.747 103.246,83.343 104.55,82.73 C105.664,82.209 106.191,81.392 106.161,80.233 L106.161,80.208 C106.201,79.557 105.975,78.93 105.492,78.345 C104.495,77.132 103.135,76.44 101.211,76.161 C100.891,76.115 100.563,76.092 100.208,76.092 C99.503,76.092 98.803,76.19 98.267,76.277 C98.349,77.888 98.391,79.541 98.391,81.192 C98.391,82.18 98.377,83.178 98.35,84.158 C98.959,84.11 99.563,84.036 100.231,83.951" id="Fill-50" fill="#f6892a"></path>
            <path d="M99.515,97.979 C100.171,97.752 100.818,97.466 101.444,97.191 C101.715,97.072 101.982,96.955 102.251,96.841 C103.412,96.348 104.674,95.977 106.221,95.671 C109.018,95.117 110.978,93.888 112.213,91.913 C112.532,91.402 112.797,90.828 113.03,90.321 C113.331,89.672 113.721,89.054 114.193,88.483 L114.335,88.312 C114.523,86.596 114.657,84.795 114.732,82.955 L114.723,82.954 C114.084,82.911 113.48,82.688 112.977,82.31 C112.449,81.911 111.99,81.223 111.77,80.717 L111.008,78.619 C110.72,77.846 110.366,76.978 109.925,76.397 C109.287,75.555 108.415,74.913 107.26,74.437 C104.725,73.387 101.983,73.026 98.878,73.334 C98.679,73.355 98.479,73.377 98.278,73.399 L98.068,73.423 C98.116,73.985 98.16,74.567 98.198,75.157 C99.491,74.922 100.799,74.931 102.089,75.186 C104.164,75.593 105.667,76.542 106.684,78.084 C107.643,79.541 107.512,82.048 105.9,83.222 C105.199,83.732 104.376,84.11 103.384,84.376 C102.131,84.71 101.088,84.946 100.101,85.118 C99.529,85.218 98.971,85.256 98.324,85.301 L98.311,85.303 C98.254,86.746 98.165,88.156 98.046,89.495 C98.66,89.116 100.299,88.476 100.316,88.469 C102.119,87.842 103.092,87.549 105.521,87.729 C106.605,87.809 107.323,88.121 107.715,88.685 C108.05,89.169 108.166,89.704 108.04,90.192 C107.891,90.77 107.504,91.146 107.146,91.439 C106.134,92.265 104.942,92.651 104.016,92.896 C102.645,93.256 101.18,93.334 100.764,93.348 C100.671,93.351 100.574,93.354 100.476,93.354 C99.791,93.354 98.971,93.275 98.574,93.199 C98.242,93.136 97.94,93.001 97.677,92.796 C97.419,94.694 97.083,96.509 96.68,98.194 C97.715,98.351 98.643,98.28 99.515,97.979" id="Fill-51" fill="#f6892a"></path>
            <path d="M66.552,37.841 C67.094,38.241 67.546,38.545 67.967,38.795 C69.735,39.847 71.635,40.028 73.615,39.33 C75.405,38.702 77.208,38.36 78.973,38.317 C79.586,38.303 80.198,38.325 80.715,38.35 C81.159,38.371 81.615,38.413 82.069,38.474 C82.654,38.551 83.238,38.633 83.803,38.715 C84.516,38.816 85.254,38.92 85.992,39.015 C86.503,39.081 87.024,39.139 87.527,39.196 L87.685,39.213 C88.133,39.262 88.667,39.321 89.216,39.389 C85.057,38.143 80.512,37.512 75.698,37.512 C73.089,37.512 70.304,37.652 67.356,37.802 L66.552,37.841" id="Fill-52" fill="#f6892a"></path>
            <path d="M75.71,122.772 C76.545,122.786 77.408,122.767 78.273,122.738 C76.218,121.345 74.167,119.831 72.402,118.519 L72.343,118.476 C71.953,118.186 71.498,117.849 71.029,117.526 L70.943,117.467 L70.165,116.948 C68.887,116.693 67.924,116.284 67.221,115.697 L67.028,115.653 C66.122,115.4 65.178,115.216 64.14,115.089 C63.94,115.064 63.737,115.038 63.531,115.012 L63.254,114.977 C61.819,114.792 60.336,114.605 59.018,114.63 C56.696,114.672 54.972,115.053 53.067,115.946 C52.357,116.279 51.664,116.657 50.995,117.021 L50.976,117.031 C50.429,117.329 49.81,117.666 49.198,117.965 C48.646,118.235 47.317,118.739 46.713,118.886 C45.84,119.097 43.954,119.127 43.874,119.128 L43.864,119.128 C43.476,119.13 43.076,119.132 42.706,119.192 C42.239,119.266 41.524,119.872 41.517,119.879 L41.116,120.22 L40.398,121.338 L41.161,122.65 C41.409,122.631 41.922,122.573 41.927,122.573 C42.937,122.451 44.62,122.215 44.637,122.213 C44.94,122.17 45.237,122.128 45.526,122.077 C45.699,122.047 45.874,122.019 46.048,121.991 L46.119,121.979 C46.701,121.888 47.301,121.792 47.857,121.615 C49.126,121.21 50.266,120.469 51.213,119.798 C52.697,118.746 54.331,117.698 56.225,117.161 C57.986,116.661 59.357,116.406 60.672,116.335 C62.385,116.244 64.089,116.391 65.734,116.773 C67.355,117.15 68.722,117.765 69.913,118.656 C70.97,119.448 72.038,120.241 73.041,120.985 L75.444,122.769 C75.533,122.769 75.621,122.771 75.71,122.772" id="Fill-53" fill="#f6892a"></path>
            <path d="M99.163,92.169 C101.185,92.298 102.829,92.131 104.337,91.64 C105.057,91.404 105.883,91.082 106.544,90.482 C107.014,90.055 107.169,89.79 107.078,89.565 C106.882,89.079 106.662,88.971 106.009,88.852 L105.847,88.834 C104.832,88.713 103.913,88.723 103.125,88.864 C102.714,88.938 102.174,89.072 101.805,89.173 C101.484,89.26 98.906,90.102 98.162,90.845 C97.947,91.06 97.942,91.37 98.004,91.57 C98.101,91.889 98.567,92.13 99.163,92.169" id="Fill-54" fill="#f6892a"></path>
            <path d="M97.727,57.493 C98.171,57.102 98.639,56.736 99.091,56.383 C99.519,56.048 99.996,55.675 100.436,55.289 C100.865,54.911 101.285,54.444 101.756,53.819 C102.362,53.016 102.125,52.216 101.819,51.687 C101.081,50.408 100.302,49.175 99.503,48.022 C98.506,46.582 97.291,45.146 95.68,43.504 C94.555,42.359 93.155,41.509 91.519,40.977 C90.481,40.639 89.363,40.516 88.282,40.396 L87.7,40.331 C87.421,40.299 86.85,40.219 86.128,40.119 L86.062,40.11 C84.382,39.877 81.843,39.524 80.963,39.483 C80.729,39.458 78.696,39.252 77.015,39.637 C75.991,39.872 75.04,40.097 73.781,40.468 C72.208,40.931 70.764,40.975 69.368,40.601 L69.35,40.596 C67.802,40.177 66.539,39.282 65.405,38.377 C65.283,38.28 65.018,38.064 65.018,38.064 L64.849,37.925 C64.283,37.952 63.663,37.978 62.959,38.006 C63.153,38.147 63.325,38.28 63.484,38.413 C64.294,39.089 65.085,39.811 65.849,40.51 L65.93,40.584 C66.298,40.921 66.714,41.301 67.123,41.666 C67.744,42.22 68.389,42.658 69.037,42.969 L69.041,42.97 L70.523,42.97 C71.701,42.97 72.879,43.024 74.023,43.131 L74.04,43.126 C74.055,43.121 74.083,43.109 74.125,43.092 L74.152,43.08 C74.532,42.921 75.686,42.438 77.265,42.206 C78.21,42.067 79.967,42.174 80.686,42.274 C81.463,42.381 82.191,42.508 82.896,42.63 C84.51,42.911 86.033,43.174 87.638,43.114 C88.91,43.067 90.203,43.229 91.483,43.591 C92.928,44 94.195,44.766 95.248,45.867 C96.479,47.154 97.344,48.48 97.891,49.922 C98.624,51.859 98.301,53.725 96.931,55.467 C96.266,56.313 95.511,57.189 94.624,58.143 L94.623,58.144 C94.839,58.653 95.054,59.197 95.261,59.763 C96.115,58.943 96.922,58.2 97.727,57.493" id="Fill-55" fill="#f6892a"></path>
            <path d="M65.13,50.17 C65.098,50.052 65.063,49.939 65.018,49.816 L64.988,49.731 C64.932,49.584 64.873,49.453 64.809,49.33 C64.307,48.351 63.769,47.379 63.211,46.439 C63.023,46.122 62.846,45.834 62.671,45.553 C61.869,44.265 60.925,43.188 59.868,42.351 C59.718,42.233 59.554,42.118 59.369,41.999 C58.313,41.325 57.05,40.996 55.509,40.996 C55.264,40.996 55.006,41.005 54.743,41.022 C52.919,41.136 51.09,41.744 49.153,42.882 C48.715,43.139 48.302,43.382 47.906,43.617 C48.039,43.718 48.155,43.815 48.256,43.913 C49.347,43.286 50.471,42.773 51.598,42.389 C52.879,41.953 54.018,41.75 55.087,41.77 C55.265,41.773 55.441,41.788 55.591,41.801 L55.641,41.804 C55.668,41.805 55.695,41.807 55.721,41.809 C55.762,41.813 55.802,41.821 55.843,41.827 L55.919,41.84 C56.293,41.891 56.629,41.96 56.946,42.053 C58.793,42.595 60.278,43.771 61.485,45.651 C62.382,47.047 62.957,48.273 63.295,49.507 C63.801,51.358 63.591,52.839 63.515,53.247 C63.391,53.917 63.174,54.551 62.965,55.165 L62.902,55.352 C62.761,55.767 62.604,56.198 62.42,56.67 C61.967,57.835 61.459,58.944 60.908,59.967 C60.182,61.314 59.359,62.842 58.24,64.124 C56.828,65.739 55.076,66.558 53.03,66.558 C52.491,66.558 51.926,66.5 51.35,66.387 C51.14,66.345 50.936,66.292 50.705,66.222 L50.678,66.213 C50.647,66.204 50.618,66.195 50.59,66.186 C50.384,66.119 50.186,66.047 50.001,65.971 L49.997,65.971 L49.997,68.104 L50.068,68.125 C50.098,68.134 50.127,68.142 50.156,68.15 L50.238,68.172 C50.432,68.225 50.638,68.281 50.841,68.326 C50.886,68.336 50.931,68.344 50.976,68.353 L51.071,68.37 C51.287,68.413 51.466,68.449 51.653,68.476 C51.716,68.486 51.781,68.493 51.846,68.499 L52.11,68.529 C52.23,68.543 52.353,68.558 52.476,68.567 C52.768,68.588 53.047,68.599 53.327,68.6 C53.336,68.6 53.348,68.599 53.359,68.598 L53.372,68.597 C53.391,68.596 53.41,68.594 53.429,68.593 C53.883,68.578 54.362,68.522 54.853,68.426 C55.314,68.335 55.744,68.221 56.131,68.086 C57.355,67.661 58.179,67.123 58.725,66.396 C58.803,66.291 58.876,66.181 58.943,66.069 C59.053,65.887 59.17,65.686 59.302,65.455 C59.602,64.931 59.902,64.369 60.221,63.739 L60.294,63.594 C60.35,63.483 60.406,63.372 60.463,63.257 C60.883,62.399 61.296,61.521 61.717,60.621 L61.787,60.471 C62.114,59.774 62.483,58.984 62.853,58.218 C63.007,57.898 63.164,57.58 63.322,57.262 C63.97,55.955 64.641,54.605 65.022,53.161 C65.067,52.986 65.103,52.82 65.129,52.694 L65.189,52.406 L65.188,50.415 L65.13,50.17" id="Fill-56" fill="#f6892a"></path>
            <path d="M99.282,60.226 C100.185,59.615 101.094,59.22 101.984,59.051 C103.185,58.824 104.141,58.918 104.997,59.345 C105.948,59.824 106.565,60.644 106.832,61.784 C106.963,62.347 107.088,62.947 107.05,63.541 C106.964,64.856 106.286,65.915 105.033,66.689 C104.05,67.297 103.351,67.442 102.158,67.536 C101.82,67.563 101.417,67.59 100.983,67.59 C99.828,67.59 98.782,67.384 97.69,66.942 C97.51,66.869 97.33,66.767 97.141,66.632 C97.32,67.551 97.482,68.518 97.624,69.51 L97.649,69.51 C97.951,69.506 98.23,69.502 98.508,69.501 C99.703,69.499 100.987,69.492 102.285,69.453 L102.771,69.44 C103.681,69.416 104.62,69.391 105.522,69.274 C107.48,69.02 108.721,68.004 109.21,66.254 C109.444,65.42 109.597,64.54 109.745,63.69 L109.804,63.352 C109.908,62.761 110.001,62.164 110.091,61.586 L110.099,61.53 C110.253,60.541 110.412,59.517 110.623,58.518 C110.641,58.433 110.662,58.351 110.684,58.268 L110.75,58.02 C107.51,50.864 102.422,45.462 95.625,41.959 C96.985,43.091 98.109,44.457 99.197,45.778 C100.628,47.515 101.752,49.152 102.634,50.783 C103.607,52.582 103.391,53.971 101.91,55.426 C101.369,55.958 100.774,56.443 100.199,56.912 L100.173,56.932 C99.837,57.207 99.489,57.491 99.162,57.775 C98.099,58.702 97.057,59.64 96.089,60.516 C95.998,60.598 95.912,60.682 95.825,60.765 L95.67,60.913 C95.926,61.686 96.175,62.539 96.43,63.515 C96.908,62.267 97.817,61.219 99.282,60.226" id="Fill-57" fill="#f6892a"></path>
            <path d="M80.276,122.633 C82.03,122.517 83.746,122.321 85.381,122.052 L84.814,121.994 C83.894,121.899 82.904,121.634 81.605,121.135 C80.444,120.689 78.743,119.783 77.733,119.073 C77.307,118.773 76.933,118.479 76.571,118.196 L76.357,118.028 C76.141,117.874 75.736,117.581 75.469,117.358 L75.415,117.313 C75.388,117.313 75.36,117.314 75.334,117.314 C75.288,117.315 75.242,117.316 75.196,117.316 C74.211,117.316 73.351,117.292 72.573,117.242 C74.176,118.491 75.841,119.727 77.665,121.019 C78.427,121.56 79.228,122.06 80.047,122.508 L80.276,122.633" id="Fill-58" fill="#f6892a"></path>
            <path d="M7.543,108.485 C7.156,107.599 7.803,107.034 8.474,106.734 C10.333,105.902 11.666,107.537 12.203,108.608 L11.532,108.908 C9.596,109.775 7.921,109.351 7.543,108.485 Z M10.412,111.066 L14.629,109.179 C16.163,108.493 17.081,107.761 16.383,106.164 C15.752,104.72 14.279,103.079 12.592,103.833 L12.074,104.065 L12.014,104.345 L13.415,105.559 C13.551,105.452 13.726,105.328 13.899,105.25 C14.474,104.993 15.055,105.17 15.341,105.824 C15.694,106.633 15.155,107.288 13.564,107.999 L12.836,108.325 C12.054,106.536 10.418,104.208 7.677,105.434 C6.603,105.914 5.518,106.998 6.14,108.422 C6.695,109.692 8.462,109.96 9.28,110.1 L9.258,110.156 L7.449,110.735 C7.674,111.094 7.872,111.443 8.041,111.828 C8.175,112.135 8.271,112.46 8.323,112.736 L9.009,112.89 L9.15,112.688 C8.805,111.899 8.936,111.726 10.412,111.066 L10.412,111.066 Z" id="Fill-59" fill="#f6892a"></path>
            <path d="M4.303,92.727 L6.775,92.236 C8.011,91.991 10.168,92.29 10.326,93.094 C10.391,93.423 10.164,93.897 9.92,94.288 L11.356,94.945 C11.69,94.364 12.087,93.772 11.957,93.112 C11.782,92.226 10.239,91.891 8.884,91.646 L8.917,91.596 L11.595,91.279 L10.463,89.02 L9.826,88.718 L9.644,88.883 C9.856,89.954 9.716,90.11 8.212,90.409 L4.01,91.244 C2.527,91.538 2.26,91.485 2.035,90.566 L1.398,90.264 L1.216,90.429 C1.384,91.059 1.596,91.809 1.726,92.468 C1.844,93.066 1.892,93.634 1.973,94.261 L2.611,94.562 L2.792,94.398 C2.556,93.203 2.779,93.03 4.303,92.727" id="Fill-60" fill="#f6892a"></path>
            <path d="M12.588,98.521 C13.005,99.909 11.331,100.76 10.509,101.015 L9.387,97.648 C10.514,97.385 12.231,97.335 12.588,98.521 Z M7.168,103.617 L7.224,103.291 C6.523,103.003 5.213,102.51 4.862,101.343 C4.282,99.412 7.037,98.291 8.621,97.798 L9.993,102.364 C10.362,102.425 10.747,102.393 11.188,102.256 C12.752,101.769 13.938,100.168 13.454,98.559 C12.79,96.347 9.951,95.801 7.284,96.631 C4.276,97.567 2.976,99.445 3.562,101.396 C3.961,102.723 5.304,103.471 6.011,103.779 L7.168,103.617 L7.168,103.617 Z" id="Fill-61" fill="#f6892a"></path>
            <path d="M16.26,120.892 L22.414,116.722 L20.477,115.092 L19.77,115.064 L19.667,115.286 C20.286,116.186 20.219,116.384 18.949,117.243 L15.403,119.646 C14.151,120.494 13.883,120.549 13.312,119.794 L12.605,119.766 L12.502,119.988 C12.906,120.501 13.399,121.105 13.78,121.659 C14.125,122.161 14.394,122.663 14.716,123.206 L15.424,123.234 L15.526,123.012 C14.836,122.009 14.973,121.763 16.26,120.892" id="Fill-62" fill="#f6892a"></path>
            <path d="M12.698,115.547 L17.927,112.546 L18.666,114.011 L19.46,114.04 L19.578,113.827 L18.599,112.161 L22.024,110.196 L22.065,109.81 L20.184,109.511 L17.835,110.859 L17.335,110.008 L16.541,109.98 L16.423,110.193 L17.163,111.245 L11.46,114.518 C10.458,115.092 9.692,115.774 10.595,117.311 C10.712,117.51 10.879,117.753 11.029,117.885 L12.342,118.051 L12.468,117.81 C12.296,117.642 12.121,117.427 11.994,117.21 C11.451,116.287 11.769,116.08 12.698,115.547" id="Fill-63" fill="#f6892a"></path>
            <path d="M1.433,88.734 L1.634,88.592 C1.573,87.754 1.736,87.678 3.079,86.752 L7.024,83.958 L8.541,85.125 C9.542,85.868 9.656,85.986 9.738,87.117 L10.334,87.491 L10.534,87.349 C10.45,86.766 10.337,86.08 10.291,85.452 C10.244,84.802 10.258,84.127 10.253,83.475 L9.657,83.1 L9.457,83.242 C9.508,83.954 9.372,84.112 9.037,84.138 C8.786,84.158 8.452,83.91 8.188,83.741 L5.858,82.112 L5.897,82.066 L15.69,81.512 L14.836,79.03 L14.24,78.656 L14.04,78.798 C14.119,79.887 13.961,80.026 12.432,80.145 L2.885,80.89 C1.378,81.008 1.119,80.923 1.009,79.984 L0.413,79.609 L0.213,79.751 C0.302,80.397 0.421,81.167 0.469,81.837 C0.513,82.445 0.478,82.827 0.482,83.458 L1.077,83.833 L1.278,83.691 C1.203,82.665 1.445,82.519 2.995,82.398 L4.837,82.255 L5.842,83.04 L2.693,85.202 C2.431,85.37 1.989,85.658 1.884,85.666 C1.528,85.693 1.441,85.363 1.375,85.031 L0.779,84.657 L0.579,84.799 C0.667,85.424 0.78,86.11 0.827,86.759 C0.865,87.283 0.84,87.811 0.838,88.359 L1.433,88.734" id="Fill-64" fill="#f6892a"></path>
            <path d="M5.951,50.882 C6.622,49.071 9.597,49.746 11.282,50.396 C13.594,51.288 14.614,52.402 14.155,53.643 C13.476,55.474 10.531,54.72 8.689,54.01 C6.397,53.125 5.542,51.985 5.951,50.882 Z M8.703,55.726 C11.956,56.981 14.211,55.848 14.941,53.879 C15.634,52.008 14.344,49.867 11.287,48.688 C8.917,47.773 6.15,47.988 5.216,50.509 C4.486,52.478 5.803,54.607 8.703,55.726 L8.703,55.726 Z" id="Fill-65" fill="#f6892a"></path>
            <path d="M32.355,129.113 L30.944,127.793 L33.652,124.92 L33.58,124.537 L31.697,124.79 L29.839,126.761 L29.118,126.087 L28.35,126.289 L28.299,126.528 L29.306,127.326 L24.798,132.11 C24.006,132.95 23.468,133.827 24.772,135.046 C24.941,135.204 25.17,135.389 25.351,135.473 L26.654,135.254 L26.706,134.985 C26.494,134.873 26.265,134.717 26.081,134.545 C25.299,133.814 25.543,133.524 26.277,132.745 L30.411,128.359 L31.536,129.554 L32.303,129.352 L32.355,129.113" id="Fill-66" fill="#f6892a"></path>
            <path d="M24.18,112.99 C23.658,113.343 23.392,114.031 23.749,114.55 C24.106,115.069 24.849,115.073 25.37,114.72 C25.892,114.366 26.158,113.679 25.801,113.16 C25.444,112.641 24.701,112.636 24.18,112.99" id="Fill-67" fill="#f6892a"></path>
            <path d="M27.878,125.284 L28.581,125.239 L28.66,125.007 C28.331,124.68 27.904,124.27 27.594,123.901 C27.256,123.498 26.994,123.088 26.688,122.659 L25.986,122.704 L25.906,122.936 C26.32,123.494 26.453,123.684 25.972,124.092 C25.828,124.214 25.55,124.34 25.317,124.455 L20.192,126.874 L20.165,126.842 L23.247,121.695 C23.353,121.495 23.488,121.297 23.681,121.134 C23.985,120.876 24.435,121.183 24.691,121.489 L25.394,121.444 L25.473,121.211 C24.995,120.708 24.515,120.234 24.069,119.703 C23.745,119.317 23.456,118.874 23.164,118.461 L22.461,118.506 L22.382,118.739 C22.639,119.209 22.649,119.448 22.105,120.433 L19.148,125.86 C18.779,126.531 18.38,127.199 17.968,127.852 L18.536,128.527 C19.437,128.065 20.365,127.636 21.318,127.269 L25.658,125.515 C27.368,124.808 27.506,124.939 27.878,125.284" id="Fill-68" fill="#f6892a"></path>
            <path d="M101.458,151.067 C99.761,151.622 98.768,149.582 98.166,147.725 C97.375,145.288 97.686,143.662 99.083,143.205 C100.56,142.722 101.584,144.243 102.355,146.62 C103.062,148.798 102.815,150.624 101.458,151.067 Z M99.253,141.824 C97.736,142.32 97.387,143.76 97.066,144.881 L97.013,144.854 L96.539,142.711 L94.431,144.107 L94.207,144.777 L94.391,144.938 C95.429,144.598 95.601,144.719 96.074,146.177 L98.977,155.126 C99.444,156.564 99.422,156.836 98.537,157.17 L98.312,157.84 L98.497,158 C99.103,157.758 99.822,157.457 100.461,157.248 C101.159,157.02 101.877,156.851 102.609,156.656 L102.833,155.986 L102.649,155.826 C101.132,156.322 100.894,156.134 100.414,154.656 L99.481,151.78 C100.17,151.997 100.932,152.101 101.671,151.859 C103.806,151.161 104.695,148.661 103.593,145.265 C102.764,142.709 101.03,141.243 99.253,141.824 L99.253,141.824 Z" id="Fill-69" fill="#f6892a"></path>
            <path d="M90.768,153.332 C89.82,153.519 89.422,152.763 89.286,152.04 C88.909,150.039 90.802,149.087 91.965,148.793 L92.101,149.515 C92.493,151.599 91.695,153.148 90.768,153.332 Z M93.934,151.079 L93.079,146.539 C92.768,144.888 92.27,143.83 90.56,144.168 C89.015,144.473 87.083,145.561 87.425,147.378 L87.53,147.935 L87.788,148.055 L89.288,146.945 C89.216,146.788 89.136,146.59 89.101,146.404 C88.984,145.785 89.29,145.254 89.991,145.116 C90.856,144.945 91.367,145.614 91.689,147.327 L91.837,148.112 C89.921,148.49 87.286,149.589 87.841,152.54 C88.059,153.696 88.859,154.993 90.383,154.692 C91.743,154.423 92.411,152.75 92.736,151.98 L92.785,152.013 L92.929,153.911 C93.329,153.768 93.713,153.649 94.125,153.568 C94.454,153.503 94.792,153.479 95.071,153.488 L95.378,152.849 L95.216,152.667 C94.371,152.834 94.233,152.669 93.934,151.079 L93.934,151.079 Z" id="Fill-70" fill="#f6892a"></path>
            <path d="M19.576,51.669 L19.833,52.351 L20.126,52.35 C20.419,51.768 20.715,51.138 21.034,50.595 C21.384,49.997 21.747,49.503 22.134,48.927 L21.877,48.244 L21.584,48.245 C20.957,49.314 20.393,49.57 18.593,48.53 L11.701,44.549 L11.722,44.513 L24.493,44.905 C24.711,44.449 24.912,43.983 25.177,43.53 C25.443,43.077 25.699,42.765 26.001,42.333 L25.744,41.651 L25.451,41.652 C24.803,42.757 24.53,42.89 22.748,41.86 L15.42,37.627 C13.747,36.661 13.641,36.26 14.109,35.463 L13.851,34.781 L13.559,34.781 C13.255,35.382 12.97,35.993 12.619,36.591 C12.3,37.135 11.917,37.665 11.551,38.205 L11.808,38.887 L12.101,38.886 C12.876,37.564 13.273,37.551 14.91,38.496 L22.929,43.129 L22.908,43.165 L8.754,42.725 L8.191,43.685 L18.083,49.4 C19.883,50.44 20.064,50.713 19.576,51.669" id="Fill-71" fill="#f6892a"></path>
            <g id="Group-75" transform="translate(0.000000, 64.000000)">
                <mask id="mask-4" fill="white">
                    <use xlink:href="#path-3"></use>
                </mask>
                <g id="Clip-73"></g>
                <path d="M35.404,75.9 L42.696,65.47 L40.307,64.636 L39.637,64.862 L39.62,65.106 C40.518,65.726 40.526,65.936 39.647,67.192 L34.161,75.041 C33.294,76.28 33.063,76.427 32.262,75.924 L31.592,76.15 L31.575,76.393 C32.134,76.729 32.81,77.119 33.363,77.501 C33.864,77.848 34.294,78.222 34.788,78.614 L35.458,78.388 L35.475,78.145 C34.473,77.452 34.514,77.174 35.404,75.9" id="Fill-72" fill="#f6892a" mask="url(#mask-4)"></path>
                <path d="M0.744,13.882 C0.848,12.858 1.11,12.778 2.657,12.928 L5.938,13.247 C7.966,13.443 10.082,13.395 10.317,11.097 C10.43,9.99 9.47,9.053 8.671,8.406 C9.788,8.219 10.667,7.671 10.813,6.251 C10.926,5.144 9.883,4.198 9.142,3.599 L9.188,3.561 L11.048,3.953 L10.627,1.464 L10.105,0.992 L9.883,1.097 C9.772,2.183 9.592,2.292 8.066,2.144 L3.802,1.731 C2.297,1.585 2.057,1.456 2.112,0.512 L1.59,0.039 L1.368,0.144 C1.344,0.796 1.327,1.575 1.259,2.243 C1.197,2.849 1.077,3.407 0.971,4.03 L1.492,4.503 L1.714,4.397 C1.838,3.186 2.102,3.085 3.648,3.235 L6.721,3.533 C8.331,3.689 9.734,4.416 9.601,5.711 C9.494,6.756 8.574,7.088 6.734,6.91 L3.306,6.577 C1.801,6.431 1.561,6.303 1.616,5.358 L1.094,4.886 L0.872,4.991 C0.848,5.643 0.831,6.422 0.763,7.09 C0.701,7.696 0.583,8.233 0.475,8.877 L0.996,9.349 L1.218,9.244 C1.342,8.032 1.606,7.931 3.152,8.082 L6.434,8.4 C7.876,8.54 9.227,9.367 9.105,10.558 C8.998,11.602 8.078,11.935 6.238,11.757 L2.81,11.424 C1.306,11.278 1.065,11.149 1.12,10.205 L0.598,9.733 L0.376,9.838 C0.352,10.489 0.335,11.268 0.267,11.937 C0.211,12.48 0.1,12.954 0,13.513 L0,13.514 L0.522,13.987 L0.744,13.882" id="Fill-74" fill="#f6892a" mask="url(#mask-4)"></path>
            </g>
            <path d="M84.922,152.781 L82.197,148.831 L83.387,147.313 C84.146,146.31 84.265,146.197 85.396,146.114 L85.78,145.518 L85.641,145.318 C85.058,145.402 84.37,145.515 83.742,145.561 C83.093,145.608 82.419,145.594 81.767,145.599 L81.383,146.195 L81.521,146.396 C82.233,146.344 82.389,146.48 82.409,146.816 C82.425,147.067 82.172,147.401 81.999,147.667 L80.333,149.998 L80.288,149.959 L79.897,140.155 L77.404,141.01 L77.019,141.606 L77.158,141.807 C78.247,141.728 78.383,141.886 78.477,143.416 L79.064,152.975 C79.156,154.484 79.067,154.743 78.127,154.854 L77.743,155.45 L77.882,155.651 C78.528,155.562 79.299,155.442 79.97,155.394 C80.577,155.35 80.958,155.385 81.589,155.381 L81.973,154.785 L81.834,154.585 C80.808,154.659 80.667,154.417 80.572,152.866 L80.459,151.021 L81.259,150.015 L83.367,153.168 C83.531,153.43 83.81,153.873 83.817,153.977 C83.839,154.334 83.507,154.421 83.175,154.487 L82.791,155.084 L82.929,155.284 C83.555,155.197 84.242,155.084 84.892,155.036 C85.415,154.998 85.943,155.023 86.49,155.026 L86.874,154.429 L86.736,154.229 C85.898,154.29 85.825,154.126 84.922,152.781" id="Fill-76" fill="#f6892a"></path>
            <path d="M3.278,60.215 C3.584,59.036 3.859,58.976 5.364,59.364 L7.805,59.993 C9.025,60.307 10.839,61.512 10.633,62.305 C10.549,62.63 10.138,62.958 9.749,63.205 L10.758,64.419 C11.311,64.041 11.926,63.679 12.094,63.028 C12.321,62.154 11.076,61.183 9.962,60.375 L10.013,60.345 L12.563,61.219 L12.523,58.693 L12.08,58.145 L11.845,58.215 C11.571,59.272 11.376,59.352 9.892,58.969 L5.743,57.901 C4.279,57.523 4.062,57.359 4.258,56.434 L3.814,55.885 L3.579,55.955 C3.457,56.596 3.323,57.364 3.154,58.014 C3.001,58.604 2.798,59.137 2.6,59.736 L3.043,60.284 L3.278,60.215" id="Fill-77" fill="#f6892a"></path>
            <path d="M44.033,140.582 L40.876,138.954 C41.522,137.992 42.748,136.774 43.832,137.374 C45.1,138.076 44.46,139.834 44.033,140.582 Z M44.495,136.805 C42.474,135.686 40.01,137.251 38.627,139.677 C37.066,142.414 37.413,144.646 39.195,145.633 C40.408,146.304 41.912,145.912 42.644,145.646 L43.382,144.734 L43.198,144.464 C42.484,144.74 41.179,145.29 40.113,144.701 C38.35,143.724 39.596,141.03 40.418,139.589 L44.589,141.897 C44.902,141.687 45.163,141.399 45.392,140.997 C46.203,139.574 45.965,137.618 44.495,136.805 L44.495,136.805 Z" id="Fill-78" fill="#f6892a"></path>
            <path d="M47.854,148.499 C46.313,147.884 46.601,145.919 47.338,144.133 C48.315,141.764 49.698,140.394 51.16,140.978 C52.818,141.64 52.267,143.636 51.419,145.694 C50.562,147.772 49.258,149.06 47.854,148.499 Z M51.934,148.41 L56.786,136.645 L54.073,136.285 L53.467,136.653 L53.504,136.894 C54.693,137.369 54.766,137.579 54.181,138.996 L53.044,141.753 C52.6,141.123 52.194,140.509 51.356,140.174 C48.937,139.208 46.705,141.483 45.632,144.084 C44.607,146.569 45.033,148.73 46.788,149.431 C48.31,150.038 49.52,149.142 50.534,148.281 L50.557,148.335 L49.545,150.237 C49.912,150.339 50.326,150.436 50.696,150.584 C51.067,150.732 51.394,150.931 51.729,151.11 L52.335,150.741 L52.298,150.501 C51.343,150.119 51.341,149.847 51.934,148.41 L51.934,148.41 Z" id="Fill-79" fill="#f6892a"></path>
            <path d="M72.397,147.617 C72.445,146.758 72.859,146.127 73.698,146.171 C74.788,146.227 74.912,147.411 75.059,148.176 L75.317,148.442 L75.999,147.909 C75.952,147.234 75.96,146.709 76.002,145.954 C75.344,145.688 74.687,145.402 73.995,145.366 C72.296,145.278 71.161,146.397 71.077,147.906 C70.89,151.282 75.13,150.304 74.985,152.925 C74.924,154.015 74.456,154.874 73.282,154.813 C71.857,154.718 71.634,153.045 71.527,151.946 L71.199,151.782 L70.569,152.527 C70.654,153.268 70.618,153.918 70.577,154.652 C71.124,155.037 72.23,155.578 73.173,155.627 C75.082,155.726 76.214,154.271 76.307,152.594 C76.498,149.155 72.255,150.196 72.397,147.617" id="Fill-80" fill="#f6892a"></path>
            <path d="M59.714,148.785 C59.166,150.834 57.777,151.884 56.862,151.647 C55.927,151.404 55.894,150.55 56.084,149.84 C56.611,147.872 58.729,147.835 59.904,148.075 L59.714,148.785 Z M60.639,143.297 C59.114,142.902 56.902,143.045 56.425,144.83 L56.278,145.378 L56.458,145.598 L58.291,145.249 C58.294,145.076 58.307,144.862 58.356,144.68 C58.519,144.071 59.025,143.725 59.716,143.904 C60.57,144.125 60.74,144.95 60.29,146.634 L60.083,147.405 C58.193,146.915 55.343,146.763 54.566,149.664 C54.262,150.8 54.422,152.316 55.926,152.706 C57.268,153.053 58.594,151.835 59.22,151.281 L59.25,151.333 L58.558,153.106 C58.981,153.15 59.378,153.21 59.785,153.315 C60.11,153.399 60.424,153.524 60.672,153.654 L61.226,153.211 L61.158,152.977 C60.324,152.761 60.272,152.552 60.69,150.99 L61.884,146.527 C62.318,144.904 62.326,143.734 60.639,143.297 L60.639,143.297 Z" id="Fill-81" fill="#f6892a"></path>
            <path d="M68.932,144.924 C68.039,144.787 67.195,146.123 66.502,147.312 L66.467,147.265 L67.085,144.64 L64.574,144.934 L64.073,145.431 L64.165,145.658 C65.244,145.823 65.343,146.009 65.109,147.524 L64.455,151.757 C64.224,153.252 64.082,153.485 63.142,153.383 L62.64,153.879 L62.732,154.106 C63.382,154.163 64.16,154.219 64.824,154.321 C65.426,154.413 65.977,154.562 66.593,154.699 L67.095,154.202 L67.002,153.976 C65.798,153.791 65.712,153.523 65.95,151.987 L66.334,149.496 C66.527,148.251 67.547,146.326 68.356,146.45 C68.688,146.501 69.055,146.876 69.339,147.238 L70.448,146.112 C70.017,145.6 69.596,145.026 68.932,144.924" id="Fill-82" fill="#f6892a"></path>
        </g>
    </g>
</svg>
