<svg height="120" viewBox="0 0 144 120" width="144" xmlns="http://www.w3.org/2000/svg">
  <defs>
    <linearGradient id="a" x1="0%" y1="50%" y2="50%"><stop offset="0%" stop-color="#BAFECA"/><stop offset="100%" stop-color="#C7E7FE"/></linearGradient>
    <linearGradient id="b" x1="0%" y1="50%" y2="50%"><stop offset="0%" stop-color="#7EBEAB"/><stop offset="100%" stop-color="#4AA5AF"/></linearGradient>
    <linearGradient id="c" x1="0%" y1="49.999%" y2="49.999%"><stop offset="0%" stop-color="#BAFECA"/><stop offset="100%" stop-color="#C7E7FE"/></linearGradient>
  </defs>
  <g fill-rule="evenodd" fill="none">
    <g><path d="M48.092 96.05L71.92 72.223 95.75 96.05l-23.83 23.83z" fill="#E87C91"/><path d="M48.09 48.424l23.83 23.832-23.83 23.832V48.424z" fill="#2C0A5B" id="Shape"/><path d="M48.09 48.424H.426L24.26 72.256l23.83 23.832V48.424z" fill="url(#a)" id="Shape"/><path d="M48.09 48.425h47.663L71.92 24.595 48.09.76 24.26 24.594.426 48.424H48.09z" fill="#2C0A5B" id="Shape"/><path d="M95.753 48.424H48.09l23.83 23.832 23.833 23.832 23.832-23.832 23.83-23.832H95.754z" fill="url(#b)" id="Shape"/><path d="M71.92 24.594L95.753.762l23.832 23.832H71.92z" fill="url(#c)" id="Shape"/><path d="M119.583 24.594H71.92l23.833 23.83h47.663l-23.833-23.83z" fill="#E85946"/></g>
  </g>
</svg>
