<svg height="96" viewBox="0 0 96 96" width="96" xmlns="http://www.w3.org/2000/svg">
  <defs>
    <linearGradient id="a" x1=".001%" x2="100.001%" y1="50.001%" y2="50.001%"><stop offset="0%" stop-color="#BAFECA"/><stop offset="100%" stop-color="#C7E7FE"/></linearGradient>
    <linearGradient id="b" x1="0%" y1="50.001%" y2="50.001%"><stop offset="0%" stop-color="#7EBEAB"/><stop offset="100%" stop-color="#4AA5AF"/></linearGradient>
    <linearGradient id="c" x1="0%" x2="100.001%" y1="50.001%" y2="50.001%"><stop offset="0%" stop-color="#BAFECA"/><stop offset="100%" stop-color="#C7E7FE"/></linearGradient>
  </defs>
  <g fill-rule="evenodd" fill="none">
    <g><path d="M24.093 72.093l23.83-23.828L71.75 72.093l-23.828 23.83z" fill="#E87C91"/><path d="M71.78 72.07L47.945 48.238l23.833-23.83V72.07z" fill="#2C0A5B" id="Shape"/><path d="M95.61 95.902V48.238L71.78 72.07 47.945 95.902H95.61z" fill="url(#a)" id="Shape"/><path d="M.285 48.238v47.664l23.83-23.833 23.832-23.832-23.83-23.83L.284.573v47.664z" fill="#2C0A5B" id="Shape"/><path d="M47.946.575H.283l23.83 23.832 23.833 23.83 23.833-23.83L95.61.575H47.946z" fill="url(#b)" id="Shape"/><path d="M.285 95.902l23.83-23.832 23.832 23.832H.285z" fill="url(#c)" id="Shape"/><path d="M95.61 48.238V.575L71.78 24.408V72.07l23.83-23.832z" fill="#E85946"/></g>
  </g>
</svg>
