<?xml version="1.0" encoding="UTF-8" standalone="no"?>
<svg width="346px" height="112px" viewBox="0 0 346 112" version="1.1" xmlns="http://www.w3.org/2000/svg" xmlns:xlink="http://www.w3.org/1999/xlink">
    <defs>
        <linearGradient x1="0%" y1="50.0003023%" x2="100%" y2="50.0003023%" id="linearGradient-1">
            <stop stop-color="#4AA5AF" offset="0%"></stop>
            <stop stop-color="#19393C" offset="100%"></stop>
        </linearGradient>
        <linearGradient x1="0%" y1="49.9996977%" x2="100%" y2="49.9996977%" id="linearGradient-2">
            <stop stop-color="#4AA5AF" offset="0%"></stop>
            <stop stop-color="#19393C" offset="100%"></stop>
        </linearGradient>
        <linearGradient x1="99.9998916%" y1="49.9991638%" x2="-0.000542099443%" y2="49.9991638%" id="linearGradient-3">
            <stop stop-color="#4AA5AF" offset="0%"></stop>
            <stop stop-color="#19393C" offset="100%"></stop>
        </linearGradient>
    </defs>
    <g id="Page-1" stroke="none" stroke-width="1" fill="none" fill-rule="evenodd">
        <g id="swosh3">
            <path d="M75.829,72.811 L53.036,40.188 L118.46,47.398 L75.829,72.811 Z" id="Shape" fill="#D884C8"></path>
            <path d="M1.352,12.582 L24,4.146 L24,28.504 L0,37.221 L0,12.205 L1.352,12.582 Z" id="Shape" fill="#D884C8"></path>
            <path d="M70.148,37.582 L48,29.146 L48,53.504 L71,62.221 L71,37.205 L70.148,37.582 Z" id="Shape" fill="url(#linearGradient-1)"></path>
            <path d="M221.147,9.008 L199,0.57 L199,24.93 L222,33.645 L222,8.629 L221.147,9.008 Z" id="Shape" fill="#39264C"></path>
            <path d="M271.147,82.008 L249,73.57 L249,97.93 L272,106.645 L272,81.629 L271.147,82.008 Z" id="Shape" fill="url(#linearGradient-2)"></path>
            <path d="M202.344,62.238 L201.018,62.213 L192.911,39.293 L228.496,40.033 L218.327,111.137 L201.966,64.885 L202.344,62.238 Z" id="Shape" fill="#D884C8"></path>
            <path d="M137.948,29.648 L126.921,28.432 L165.259,5.578 L176.906,25.117 L162.978,33.42 L138.173,29.674 L137.948,29.648 Z" id="Shape" fill="#D884C8"></path>
            <path d="M231.655,41.379 L280.713,40.756 L237.535,64.053 L188.479,64.674 L231.655,41.379 Z" id="Shape" fill="url(#linearGradient-3)"></path>
            <path d="M277.754,59.959 L309.605,40.631 L320.632,41.848 L320.859,41.871 L345.664,45.617 L314.699,64.076 L277.754,59.959 Z" id="Shape" fill="#39264C"></path>
            <path d="M127.302,28.479 L163.556,37.068 L170.556,45.676 L170.7,45.85 L185.738,65.93 L150.726,57.342 L127.302,28.479 Z" id="Shape" fill="#39264C"></path>
        </g>
    </g>
</svg>