<?xml version="1.0" encoding="UTF-8" standalone="no"?>
<svg width="749px" height="93px" viewBox="0 0 749 93" version="1.1" xmlns="http://www.w3.org/2000/svg" xmlns:xlink="http://www.w3.org/1999/xlink">
    <defs>
        <linearGradient x1="4.01390953e-05%" y1="50.0002166%" x2="99.999893%" y2="50.0002166%" id="linearGradient-1">
            <stop stop-color="#2E002C" offset="0.54%"></stop>
            <stop stop-color="#C7E7FE" offset="100%"></stop>
        </linearGradient>
    </defs>
    <g id="Page-1" stroke="none" stroke-width="1" fill="none" fill-rule="evenodd">
        <g id="swosh1" transform="translate(-77.000000, 0.000000)" fill="url(#linearGradient-1)">
            <path d="M398.036,92.152 C389.978,92.153 381.609,91.143 372.848,88.882 C352.554,83.644 338.669,70.741 325.242,58.263 C312.526,46.447 300.515,35.285 284.179,32.46 C264.244,29.015 250.4,38.961 234.37,50.482 C227.498,55.421 220.393,60.528 212.638,64.533 C188.112,77.198 161.285,72.616 132.902,50.912 C128.115,47.252 124.021,43.54 120.061,40.043 C107.61,29.047 98.604,21 77.89,21 L77.752,21 L77.716,0 L77.886,0 C106.577,0 120.518,12.379 134.003,24.291 C137.689,27.546 141.499,30.944 145.694,34.152 C167.644,50.936 185.844,54.648 202.973,45.805 C209.354,42.51 215.534,38.076 222.077,33.373 C239.442,20.892 259.12,6.749 287.768,11.704 C310.268,15.596 325.169,29.443 339.579,42.833 C351.615,54.018 362.983,64.583 378.112,68.488 C415.636,78.176 445.958,58.405 478.059,37.475 L481.491,35.239 C515.749,12.948 567.47,-10.388 619.326,5.026 C632.722,9.008 645.885,14.843 658.613,20.487 C667.49,24.423 676.669,28.492 685.625,31.777 C710.739,40.988 732.458,45.054 752.036,44.208 C770.101,43.428 783.433,35.869 798.87,27.116 C804.195,24.097 809.701,20.975 815.667,17.979 L825.117,36.801 C819.626,39.558 814.355,42.547 809.258,45.437 C792.946,54.686 776.078,64.25 752.946,65.25 C730.537,66.217 706.147,61.737 678.372,51.551 C668.766,48.027 659.265,43.815 650.077,39.741 C637.398,34.12 625.424,28.811 613.325,25.215 C569.179,12.094 523.513,33.024 492.977,52.894 L489.562,55.12 C461.55,73.383 432.757,92.15 398.036,92.152 L398.036,92.152 Z" id="Shape"></path>
        </g>
    </g>
</svg>