<?xml version="1.0" encoding="UTF-8" standalone="no"?>
<svg width="786px" height="128px" viewBox="0 0 786 128" version="1.1" xmlns="http://www.w3.org/2000/svg" xmlns:xlink="http://www.w3.org/1999/xlink">
    <defs>
        <linearGradient x1="0%" y1="49.9998941%" x2="99.9999326%" y2="49.9998941%" id="linearGradient-1">
            <stop stop-color="#FFFEA2" offset="0%"></stop>
            <stop stop-color="#4AA5AF" offset="100%"></stop>
        </linearGradient>
    </defs>
    <g id="Page-1" stroke="none" stroke-width="1" fill="none" fill-rule="evenodd">
        <g id="swosh1">
            <path d="M464.083,114.143 L415.229,65 L0,65 L0,42 L424.764,42 L464.097,81.608 L526.106,19.74 L593.518,87.013 L577.277,103.327 L526.126,52.226 L464.083,114.143 Z" id="Shape" fill="url(#linearGradient-1)"></path>
            <path d="M738.688,40.771 C739.093,40.84 739.495,41 739.896,41 L785.485,41 C772.699,32 758.946,22.981 742.278,20.098 C714.333,15.266 698.01,28.667 683.609,40.528 C683.401,40.7 683.193,41.001 682.985,41.001 L723.089,41.001 C727.687,39 732.766,39.746 738.688,40.771 L738.688,40.771 Z" id="Shape" fill="#4AA5AF"></path>
            <path d="M591.115,69.127 L647.34,12.902 C631.672,19.278 617.414,27.269 605.33,35.13 L601.899,37.365 C591.727,43.999 581.732,50.511 571.63,56.011 L587.106,71.486 C588.447,70.712 589.784,69.924 591.115,69.127 L591.115,69.127 Z" id="Shape" fill="#FBFFA1"></path>
            <path d="M757.152,69.216 C763.791,65.787 769.581,61 775.655,56 L697.919,56 C698.571,56 699.223,57.038 699.873,57.535 C721.824,74.319 740.023,78.06 757.152,69.216 L757.152,69.216 Z" id="Shape" fill="#FBFFA1"></path>
            <path d="M757.152,96.696 C763.791,93.266 769.581,88 775.655,83 L697.919,83 C698.571,85 699.223,84.277 699.873,84.775 C721.824,101.559 740.023,105.54 757.152,96.696 L757.152,96.696 Z" id="Shape" fill="#E85946"></path>
            <path d="M503.281,1.95 L447.056,58.175 C454.599,53.664 461.998,48.845 469.342,44.056 L472.756,41.832 C486.96,32.59 504.439,23.119 523.515,16.951 L507.029,0.466 C505.771,0.95 504.521,1.445 503.281,1.95 L503.281,1.95 Z" id="Shape" fill="#FBFFA1"></path>
            <path d="M507.604,82.285 C500.875,85.949 494.098,89.161 487.188,91.655 L503.412,107.877 C510.122,104.912 516.659,101.47 523.08,97.761 L507.604,82.285 L507.604,82.285 Z" id="Shape" fill="#2C0A5B"></path>
            <path d="M446.104,102.347 C439.375,106.01 432.597,109.223 425.688,111.717 L441.911,127.94 C448.621,124.974 455.159,121.532 461.579,117.823 L446.104,102.347 L446.104,102.347 Z" id="Shape" fill="#FBFFA1"></path>
            <path d="M449.245,29.359 C445.124,26.037 440.969,23 436.706,19 L391.118,19 C405.007,22 417.141,31 429.503,41 L463.537,41 C458.785,38 454.061,33.242 449.245,29.359 L449.245,29.359 Z" id="Shape" fill="#2C0A5B"></path>
        </g>
    </g>
</svg>