<?xml version="1.0" encoding="UTF-8" standalone="no"?>
<svg width="340px" height="151px" viewBox="0 0 340 151" version="1.1" xmlns="http://www.w3.org/2000/svg" xmlns:xlink="http://www.w3.org/1999/xlink">
    <defs></defs>
    <g id="Page-1" stroke="none" stroke-width="1" fill="none" fill-rule="evenodd">
        <g id="swosh2" transform="translate(-593.000000, 0.000000)" fill="#D884C8">
            <path d="M751.5615,134.539 L751.9115,135.818 L732.2245,150.082 L722.8615,115.742 L793.9355,105.369 L754.2065,134.154 L751.5615,134.539 Z M604.5995,79.422 L593.5725,78.207 L631.9105,55.354 L643.5575,74.891 L629.6315,83.193 L604.8265,79.447 L604.5995,79.422 Z M621.5215,34.506 L613.4155,26.932 L657.8065,31.567 L655.4445,54.19 L639.3185,52.506 L621.6875,34.661 L621.5215,34.506 Z M693.9035,111 L683.9155,134 L680.1285,134 L671.6395,111 L693.9035,111 Z M688.4785,46.733 C688.9935,46.17 689.4995,45.631 690.0095,45.075 C694.5515,44.854 697.2415,44.206 701.2775,43.046 C712.0795,39.939 721.8865,32.972 732.2695,25.596 C743.5225,17.601 755.1585,9.335 769.2895,5.111 C829.4785,-12.879 887.1445,30.152 929.2495,61.574 L932.9135,64.306 L919.3225,82.546 L915.6435,79.802 C875.2775,49.677 825.0405,12.186 775.8045,26.905 C765.2705,30.054 755.6395,36.896 745.4415,44.14 C733.9625,52.294 722.0915,60.726 707.5665,64.906 C693.6775,68.902 679.7035,68.624 665.1445,65.906 C673.4855,60.877 681.3245,54.537 688.4785,46.733 Z" id="Shape"></path>
        </g>
    </g>
</svg>