<?xml version="1.0" encoding="UTF-8" standalone="no"?>
<svg width="999px" height="199px" viewBox="0 0 999 199" version="1.1" xmlns="http://www.w3.org/2000/svg" xmlns:xlink="http://www.w3.org/1999/xlink">
    <defs>
        <linearGradient x1="99.9998156%" y1="49.9985923%" x2="-0.000405697468%" y2="49.9985923%" id="linearGradient-1">
            <stop stop-color="#4AA5AF" offset="0%"></stop>
            <stop stop-color="#19393C" offset="100%"></stop>
        </linearGradient>
        <linearGradient x1="50.0000403%" y1="-137.035217%" x2="50.0000403%" y2="177.78%" id="linearGradient-2">
            <stop stop-color="#4AA5AF" offset="0%"></stop>
            <stop stop-color="#19393C" offset="100%"></stop>
        </linearGradient>
        <linearGradient x1="49.9993278%" y1="-8.88150069%" x2="49.9993278%" y2="100.001068%" id="linearGradient-3">
            <stop stop-color="#4AA5AF" offset="0%"></stop>
            <stop stop-color="#19393C" offset="100%"></stop>
        </linearGradient>
        <linearGradient x1="49.9995994%" y1="-48.8303975%" x2="49.9995994%" y2="152.704121%" id="linearGradient-4">
            <stop stop-color="#4AA5AF" offset="0%"></stop>
            <stop stop-color="#19393C" offset="100%"></stop>
        </linearGradient>
        <linearGradient x1="49.9993991%" y1="-48.8299906%" x2="49.9993991%" y2="152.696392%" id="linearGradient-5">
            <stop stop-color="#4AA5AF" offset="0%"></stop>
            <stop stop-color="#19393C" offset="100%"></stop>
        </linearGradient>
        <linearGradient x1="49.9993294%" y1="-143.640599%" x2="49.9993294%" y2="100.001713%" id="linearGradient-6">
            <stop stop-color="#4AA5AF" offset="0%"></stop>
            <stop stop-color="#19393C" offset="100%"></stop>
        </linearGradient>
        <linearGradient x1="50.0006304%" y1="-29.9991572%" x2="50.0006304%" y2="271.769837%" id="linearGradient-7">
            <stop stop-color="#4AA5AF" offset="0%"></stop>
            <stop stop-color="#19393C" offset="100%"></stop>
        </linearGradient>
        <linearGradient x1="50.0001822%" y1="0%" x2="50.0001822%" y2="314.822273%" id="linearGradient-8">
            <stop stop-color="#4AA5AF" offset="0%"></stop>
            <stop stop-color="#19393C" offset="100%"></stop>
        </linearGradient>
        <linearGradient x1="49.999295%" y1="0%" x2="49.999295%" y2="211.300777%" id="linearGradient-9">
            <stop stop-color="#4AA5AF" offset="0%"></stop>
            <stop stop-color="#19393C" offset="100%"></stop>
        </linearGradient>
        <linearGradient x1="100.000262%" y1="50.0003003%" x2="0.000262436195%" y2="50.0003003%" id="linearGradient-10">
            <stop stop-color="#4AA5AF" offset="0%"></stop>
            <stop stop-color="#19393C" offset="100%"></stop>
        </linearGradient>
        <linearGradient x1="100%" y1="50%" x2="-0.00028183569%" y2="50%" id="linearGradient-11">
            <stop stop-color="#A17CB4" offset="0%"></stop>
            <stop stop-color="#1D67A2" offset="100%"></stop>
        </linearGradient>
        <linearGradient x1="0.000165354851%" y1="50.0004547%" x2="99.9995039%" y2="50.0004547%" id="linearGradient-12">
            <stop stop-color="#6773AC" offset="0%"></stop>
            <stop stop-color="#DF86BD" offset="100%"></stop>
        </linearGradient>
        <linearGradient x1="100%" y1="50.001397%" x2="0.000718881421%" y2="50.001397%" id="linearGradient-13">
            <stop stop-color="#4AA5AF" offset="0%"></stop>
            <stop stop-color="#19393C" offset="100%"></stop>
        </linearGradient>
        <linearGradient x1="49.9981826%" y1="0%" x2="49.9981826%" y2="314.824656%" id="linearGradient-14">
            <stop stop-color="#BAFECA" offset="0%"></stop>
            <stop stop-color="#C7E7FE" offset="100%"></stop>
        </linearGradient>
        <linearGradient x1="49.9992435%" y1="0%" x2="49.9992435%" y2="314.822273%" id="linearGradient-15">
            <stop stop-color="#BAFECA" offset="0%"></stop>
            <stop stop-color="#C7E7FE" offset="100%"></stop>
        </linearGradient>
        <linearGradient x1="99.9998916%" y1="49.9991638%" x2="-0.000542099443%" y2="49.9991638%" id="linearGradient-16">
            <stop stop-color="#4AA5AF" offset="0%"></stop>
            <stop stop-color="#19393C" offset="100%"></stop>
        </linearGradient>
        <linearGradient x1="50.0002456%" y1="-44.0017869%" x2="50.0002456%" y2="147.250921%" id="linearGradient-17">
            <stop stop-color="#BAFECA" offset="0%"></stop>
            <stop stop-color="#C7E7FE" offset="100%"></stop>
        </linearGradient>
        <linearGradient x1="49.9990543%" y1="-53.9990324%" x2="49.9990543%" y2="162.520787%" id="linearGradient-18">
            <stop stop-color="#BAFECA" offset="0%"></stop>
            <stop stop-color="#C7E7FE" offset="100%"></stop>
        </linearGradient>
        <linearGradient x1="50%" y1="-8.75808656%" x2="50%" y2="208.733181%" id="linearGradient-19">
            <stop stop-color="#BAFECA" offset="0%"></stop>
            <stop stop-color="#C7E7FE" offset="100%"></stop>
        </linearGradient>
        <linearGradient x1="50.0008982%" y1="-214.811739%" x2="50.0008982%" y2="100.003043%" id="linearGradient-20">
            <stop stop-color="#BAFECA" offset="0%"></stop>
            <stop stop-color="#C7E7FE" offset="100%"></stop>
        </linearGradient>
    </defs>
    <g id="Page-1" stroke="none" stroke-width="1" fill="none" fill-rule="evenodd">
        <g id="swosh2">
            <path d="M750.341,46.37 C750.856,45.807 751.362,45.268 751.873,44.712 C756.413,44.491 760.788,43.843 764.824,42.683 C775.626,39.576 785.433,32.609 795.815,25.233 C807.069,17.239 818.705,8.972 832.836,4.749 C893.025,-13.242 950.691,29.789 992.796,61.211 L998.145,64.785 L984.554,83.027 L979.191,79.44 C938.825,49.314 888.588,11.823 839.352,26.543 C828.818,29.691 819.187,36.533 808.989,43.777 C797.51,51.931 785.639,60.363 771.113,64.543 C757.225,68.539 741.565,68.262 727.007,65.544 C735.348,60.514 743.187,54.174 750.341,46.37 L750.341,46.37 Z" id="Shape" fill="url(#linearGradient-1)"></path>
            <path d="M319.888,76 L317.054,76 L317.521,74.762 L319.888,76 Z" id="Shape"></path>
            <path d="M284.039,98 L264.457,113.394 L259,109.48 L259,98 L284.039,98 Z" id="Shape"></path>
            <path d="M419,101.506 L412.42,98 L419,98 L419,101.506 Z" id="Shape"></path>
            <path d="M499.982,124 L440,124 L440,117.807 L489.852,98.716 L499.982,124 Z" id="Shape"></path>
            <path d="M531,124 L522.248,124 L531,103.682 L531,124 Z" id="Shape"></path>
            <path d="M0,106 L219.129,106 L247.994,129 L0,129 L0,106 Z" id="Shape" fill="url(#linearGradient-2)"></path>
            <path d="M531,124 L531,103.682 L540.953,81.43 L556.889,104.188 L554,103.865 L554,147 L512.259,147 L522.248,124 L531,124 Z" id="Shape" fill="url(#linearGradient-3)"></path>
            <path d="M419,101.506 L419,98 L412.42,98 L368.95,76 L440,76 L440,93.448 L418.852,101.885 L419,101.506 Z" id="Shape" fill="#D884C8"></path>
            <path d="M672.389,95.029 L668.992,117.521 L625.671,111.752 L622.46,111.398 L653.425,92.94 L672.389,95.029 Z" id="Shape" fill="url(#linearGradient-4)"></path>
            <path d="M730.519,42.797 L727.121,65.289 L683.802,59.52 L680.59,59.167 L711.554,40.708 L730.519,42.797 Z" id="Shape" fill="url(#linearGradient-5)"></path>
            <path d="M440,124 L499.982,124 L508.47,147 L419,147 L419,126.521 L440,117.807 L440,124 Z" id="Shape" fill="url(#linearGradient-6)"></path>
            <path d="M569.779,82.708 L617.366,87.954 L586.357,106.439 L569.779,82.708 Z" id="Shape" fill="url(#linearGradient-7)"></path>
            <path d="M319.888,76 L363.358,98 L308.47,98 L317.054,76 L319.888,76 Z" id="Shape" fill="url(#linearGradient-8)"></path>
            <path d="M284.039,98 L259,98 L259,109.48 L236,92.064 L236,76 L292.741,76 L284.208,98.242 L284.039,98 Z" id="Shape" fill="url(#linearGradient-9)"></path>
            <path d="M510.21,151.664 L508.47,147 L512.259,147 L510.21,151.664 Z" id="Shape" fill="#D884C8"></path>
            <path d="M317.521,74.762 L317.054,76 L292.741,76 L305.308,42.699 L368.95,76 L319.888,76 L317.521,74.762 Z" id="Shape" fill="url(#linearGradient-10)"></path>
            <path d="M579.829,136.811 L557.036,104.188 L622.46,111.398 L579.829,136.811 Z" id="Shape" fill="#D884C8"></path>
            <path d="M129.555,51 L183.518,51 L190.376,56.632 L236,92.064 L236,106 L218.285,106 L176.223,74.176 L129.68,74.048 L129.555,51 Z" id="Shape" fill="url(#linearGradient-11)"></path>
            <path d="M531,103.682 L522.248,124 L499.982,124 L489.852,98.716 L440,117.807 L440,93.448 L503.139,69.491 L511.618,91.389 L536.441,35.208 L569.52,82.708 L531,78.473 L531,103.682 Z" id="Shape" fill="#D884C8"></path>
            <path d="M259,109.48 L264.457,113.394 L284.039,98 L308.47,98 L303.24,112.024 L264.738,141.986 L247.994,129 L259,129 L259,109.48 Z" id="Shape" fill="url(#linearGradient-12)"></path>
            <path d="M419,101.506 L419,126.521 L418.016,126.632 L363.358,98 L412.42,98 L419,101.506 Z" id="Shape" fill="url(#linearGradient-13)"></path>
            <path d="M628.394,89.168 L617.366,87.954 L655.704,65.1 L667.351,84.637 L653.425,92.94 L628.619,89.194 L628.394,89.168 Z" id="Shape" fill="#D884C8"></path>
            <path d="M694.948,102.648 L683.921,101.432 L722.259,78.579 L733.906,98.117 L719.978,106.42 L695.173,102.674 L694.948,102.648 Z" id="Shape" fill="#D884C8"></path>
            <path d="M284.208,98.242 L292.741,76 L317.054,76 L308.47,98 L284.039,98 L284.208,98.242 Z" id="Shape" fill="url(#linearGradient-14)"></path>
            <path d="M368.95,76 L412.42,98 L363.358,98 L319.888,76 L368.95,76 Z" id="Shape" fill="url(#linearGradient-15)"></path>
            <path d="M788.655,114.379 L837.713,113.756 L794.535,137.053 L745.479,137.674 L788.655,114.379 Z" id="Shape" fill="url(#linearGradient-16)"></path>
            <path d="M321.412,124.248 L370.28,128.594 L324.967,147.4 L276.098,143.057 L321.412,124.248 Z" id="Shape" fill="#39264C"></path>
            <path d="M822.71,176.715 L794.231,136.766 L837.986,158.959 L866.465,198.91 L822.71,176.715 Z" id="Shape" fill="#39264C"></path>
            <path d="M236,106 L236,92.064 L259,109.48 L259,129 L247.994,129 L218.285,106 L236,106 Z" id="Shape" fill="url(#linearGradient-17)"></path>
            <path d="M418.852,101.885 L440,93.448 L440,117.807 L419,126.521 L419,101.506 L418.852,101.885 Z" id="Shape" fill="url(#linearGradient-18)"></path>
            <path d="M396.352,135.582 L419,127.146 L419,151.504 L395,160.221 L395,135.205 L396.352,135.582 Z" id="Shape" fill="#D884C8"></path>
            <path d="M394.148,135.582 L372,127.146 L372,151.504 L395,160.221 L395,135.205 L394.148,135.582 Z" id="Shape" fill="#39264C"></path>
            <path d="M263.147,144.008 L241,135.57 L241,159.93 L264,168.645 L264,143.629 L263.147,144.008 Z" id="Shape" fill="#39264C"></path>
            <path d="M531,103.682 L531,78.473 L569.595,82.708 L586.266,106.439 L617.321,87.954 L628.371,89.168 L628.607,89.194 L653.419,92.94 L622.459,111.398 L557.036,104.188 L540.953,81.43 L531,103.682 Z" id="Shape" fill="url(#linearGradient-19)"></path>
            <path d="M653.754,92.959 L685.605,73.631 L696.632,74.847 L696.859,74.872 L721.664,78.618 L690.699,97.076 L653.754,92.959 Z" id="Shape" fill="#39264C"></path>
            <path d="M684.302,101.479 L720.556,110.068 L727.556,118.676 L727.7,118.85 L742.738,138.93 L707.726,130.342 L684.302,101.479 Z" id="Shape" fill="#39264C"></path>
            <path d="M522.248,124 L512.259,147 L508.47,147 L499.982,124 L522.248,124 Z" id="Shape" fill="url(#linearGradient-20)"></path>
        </g>
    </g>
</svg>